<svg version="1.1" xmlns="http://www.w3.org/2000/svg" xmlns:xlink="http://www.w3.org/1999/xlink" width="18" height="18" viewBox="0 0 18 18">
<path id="Forma-1" d="M17.927,9.190 C17.927,9.190 16.332,16.199 16.332,16.199 C16.094,17.260 15.270,17.999 14.334,17.999 C14.334,17.999 3.662,17.999 3.662,17.999 C2.725,17.999 1.902,17.257 1.663,16.199 C1.663,16.199 0.073,9.190 0.073,9.190 C-0.115,8.364 0.065,7.504 0.561,6.887 C0.954,6.394 1.491,6.122 2.071,6.122 C2.071,6.122 3.397,6.122 3.397,6.122 C3.522,2.721 5.987,-0.001 9.000,-0.001 C12.012,-0.001 14.477,2.721 14.602,6.122 C14.602,6.122 15.928,6.122 15.928,6.122 C16.509,6.122 17.045,6.394 17.438,6.887 C17.934,7.504 18.114,8.364 17.927,9.190 zM9.000,1.498 C6.810,1.498 5.017,3.551 4.900,6.122 C4.900,6.122 13.099,6.122 13.099,6.122 C12.982,3.547 11.189,1.498 9.000,1.498 zM15.928,7.621 C15.928,7.621 2.071,7.621 2.071,7.621 C1.399,7.621 1.450,8.485 1.535,8.855 C1.535,8.855 3.126,15.868 3.126,15.868 C3.206,16.228 3.438,16.500 3.662,16.500 C3.662,16.500 14.337,16.500 14.337,16.500 C14.562,16.500 14.793,16.228 14.874,15.868 C14.874,15.868 16.464,8.855 16.464,8.855 C16.549,8.485 16.652,7.621 15.928,7.621 zM12.541,15.295 C12.126,15.295 11.791,14.961 11.791,14.546 C11.791,14.546 11.791,9.862 11.791,9.862 C11.791,9.447 12.126,9.113 12.541,9.113 C12.956,9.113 13.290,9.450 13.290,9.862 C13.290,9.862 13.290,14.546 13.290,14.546 C13.290,14.961 12.956,15.295 12.541,15.295 zM8.911,15.295 C8.496,15.295 8.162,14.961 8.162,14.546 C8.162,14.546 8.162,9.862 8.162,9.862 C8.162,9.447 8.496,9.113 8.911,9.113 C9.323,9.113 9.661,9.450 9.661,9.862 C9.661,9.862 9.661,14.546 9.661,14.546 C9.661,14.961 9.326,15.295 8.911,15.295 zM5.278,15.295 C4.863,15.295 4.529,14.961 4.529,14.546 C4.529,14.546 4.529,9.862 4.529,9.862 C4.529,9.447 4.863,9.113 5.278,9.113 C5.693,9.113 6.031,9.450 6.028,9.862 C6.028,9.862 6.028,14.546 6.028,14.546 C6.028,14.961 5.693,15.295 5.278,15.295 z" fill="#FFFFFF" />
</svg>
