<svg version="1.1" xmlns="http://www.w3.org/2000/svg" xmlns:xlink="http://www.w3.org/1999/xlink" width="20" height="20" viewBox="0 0 20 20">
<path id="Forma-1" d="M19.918,10.211 C19.918,10.211 18.147,17.999 18.147,17.999 C17.881,19.178 16.967,19.999 15.926,19.999 C15.926,19.999 4.069,19.999 4.069,19.999 C3.028,19.999 2.113,19.174 1.848,17.999 C1.848,17.999 0.081,10.211 0.081,10.211 C-0.128,9.293 0.073,8.338 0.623,7.652 C1.060,7.105 1.656,6.803 2.301,6.803 C2.301,6.803 3.775,6.803 3.775,6.803 C3.914,3.023 6.652,-0.001 9.999,-0.001 C13.347,-0.001 16.086,3.023 16.224,6.803 C16.224,6.803 17.698,6.803 17.698,6.803 C18.343,6.803 18.939,7.105 19.375,7.652 C19.926,8.338 20.127,9.293 19.918,10.211 zM9.999,1.664 C7.567,1.664 5.575,3.946 5.444,6.803 C5.444,6.803 14.555,6.803 14.555,6.803 C14.424,3.942 12.432,1.664 9.999,1.664 zM17.698,8.468 C17.698,8.468 2.301,8.468 2.301,8.468 C1.554,8.468 1.611,9.427 1.705,9.840 C1.705,9.840 3.473,17.631 3.473,17.631 C3.563,18.031 3.820,18.333 4.069,18.333 C4.069,18.333 15.930,18.333 15.930,18.333 C16.179,18.333 16.436,18.031 16.526,17.631 C16.526,17.631 18.294,9.840 18.294,9.840 C18.387,9.427 18.502,8.468 17.698,8.468 zM13.934,16.994 C13.473,16.994 13.102,16.623 13.102,16.162 C13.102,16.162 13.102,10.958 13.102,10.958 C13.102,10.497 13.473,10.125 13.934,10.125 C14.396,10.125 14.767,10.501 14.767,10.958 C14.767,10.958 14.767,16.162 14.767,16.162 C14.767,16.623 14.396,16.994 13.934,16.994 zM9.902,16.994 C9.440,16.994 9.068,16.623 9.068,16.162 C9.068,16.162 9.068,10.958 9.068,10.958 C9.068,10.497 9.440,10.125 9.902,10.125 C10.359,10.125 10.734,10.501 10.734,10.958 C10.734,10.958 10.734,16.162 10.734,16.162 C10.734,16.623 10.363,16.994 9.902,16.994 zM5.864,16.994 C5.403,16.994 5.032,16.623 5.032,16.162 C5.032,16.162 5.032,10.958 5.032,10.958 C5.032,10.497 5.403,10.125 5.864,10.125 C6.326,10.125 6.701,10.501 6.697,10.958 C6.697,10.958 6.697,16.162 6.697,16.162 C6.697,16.623 6.326,16.994 5.864,16.994 z" fill="#101519" />
</svg>
