<svg version="1.1" xmlns="http://www.w3.org/2000/svg" xmlns:xlink="http://www.w3.org/1999/xlink" width="10" height="7" viewBox="0 0 10 7">
<path id="Forma-1" d="M8.337,0.246 C8.337,0.246 3.638,4.748 3.638,4.748 C3.638,4.748 1.633,2.827 1.633,2.827 C1.253,2.463 0.636,2.463 0.256,2.827 C-0.124,3.191 -0.124,3.781 0.256,4.146 C0.256,4.146 2.950,6.727 2.950,6.727 C3.140,6.909 3.389,6.999 3.638,6.999 C3.887,6.999 4.136,6.909 4.326,6.727 C4.326,6.727 9.714,1.565 9.714,1.565 C10.094,1.201 10.094,0.610 9.714,0.246 C9.334,-0.118 8.717,-0.119 8.337,0.246 z" fill="#F12D4E" />
</svg>
