<svg version="1.1" xmlns="http://www.w3.org/2000/svg" xmlns:xlink="http://www.w3.org/1999/xlink" width="14" height="12" viewBox="0 0 14 12">
<path id="Forma-1" d="M12.875,1.172 C11.352,-0.396 8.875,-0.396 7.353,1.172 C7.353,1.172 6.999,1.536 6.999,1.536 C6.999,1.536 6.646,1.172 6.646,1.172 C5.124,-0.397 2.646,-0.397 1.124,1.172 C-0.368,2.708 -0.377,5.144 1.101,6.838 C2.450,8.382 6.428,11.717 6.596,11.858 C6.711,11.954 6.849,12.001 6.985,12.001 C6.990,12.001 6.995,12.001 6.999,12.000 C7.141,12.007 7.284,11.957 7.402,11.858 C7.570,11.717 11.549,8.382 12.898,6.838 C14.376,5.144 14.367,2.708 12.875,1.172 zM11.979,5.986 C10.927,7.189 8.037,9.671 6.999,10.551 C5.961,9.671 3.072,7.189 2.020,5.986 C0.989,4.805 0.979,3.122 1.998,2.073 C2.518,1.537 3.202,1.269 3.885,1.269 C4.568,1.269 5.251,1.537 5.771,2.073 C5.771,2.073 6.549,2.874 6.549,2.874 C6.641,2.969 6.758,3.026 6.880,3.045 C7.079,3.090 7.294,3.032 7.449,2.874 C7.449,2.874 8.227,2.073 8.227,2.073 C9.268,1.001 10.961,1.001 12.001,2.073 C13.019,3.122 13.010,4.805 11.979,5.986 z" fill="#F12D4E" />
</svg>
