<svg version="1.1" xmlns="http://www.w3.org/2000/svg" xmlns:xlink="http://www.w3.org/1999/xlink" width="14" height="12" viewBox="0 0 14 12">
<path id="Forma-1" d="M12.874,1.171 C11.352,-0.397 8.875,-0.397 7.352,1.171 C7.352,1.171 6.999,1.536 6.999,1.536 C6.999,1.536 6.645,1.171 6.645,1.171 C5.123,-0.397 2.646,-0.397 1.124,1.171 C-0.368,2.708 -0.377,5.144 1.101,6.837 C2.450,8.381 6.427,11.717 6.596,11.857 C6.711,11.954 6.848,12.001 6.985,12.001 C6.989,12.001 6.994,12.001 6.999,12.001 C7.140,12.008 7.283,11.958 7.401,11.857 C7.570,11.717 11.548,8.381 12.897,6.837 C14.375,5.144 14.365,2.708 12.874,1.171 z" fill="#F12D4E" />
</svg>
