<svg version="1.1" xmlns="http://www.w3.org/2000/svg" xmlns:xlink="http://www.w3.org/1999/xlink" width="16" height="14" viewBox="0 0 16 14">
<path id="Forma-1" d="M14.680,1.366 C12.944,-0.463 10.120,-0.463 8.384,1.366 C8.384,1.366 7.981,1.792 7.981,1.792 C7.981,1.792 7.578,1.366 7.578,1.366 C5.842,-0.463 3.017,-0.463 1.281,1.366 C-0.419,3.160 -0.430,6.001 1.256,7.976 C2.794,9.778 7.329,13.670 7.521,13.833 C7.652,13.946 7.809,14.001 7.965,14.001 C7.970,14.001 7.975,14.001 7.980,14.001 C8.142,14.009 8.305,13.950 8.440,13.833 C8.632,13.670 13.168,9.778 14.706,7.976 C16.392,6.001 16.381,3.160 14.680,1.366 z" fill="#F12D4E" />
</svg>
