<svg version="1.1" xmlns="http://www.w3.org/2000/svg" xmlns:xlink="http://www.w3.org/1999/xlink" width="16" height="14" viewBox="0 0 16 14">
<path id="Forma-1" d="M14.566,1.604 C12.864,-0.150 10.096,-0.150 8.394,1.604 C8.394,1.604 7.999,2.010 7.999,2.010 C7.999,2.010 7.604,1.604 7.604,1.604 C5.903,-0.150 3.133,-0.150 1.432,1.604 C-0.235,3.321 -0.245,6.043 1.407,7.936 C2.914,9.660 7.360,13.389 7.548,13.547 C7.677,13.654 7.831,13.706 7.984,13.706 C7.989,13.706 7.994,13.706 7.999,13.706 C8.157,13.714 8.317,13.657 8.449,13.547 C8.638,13.389 13.083,9.660 14.591,7.935 C16.244,6.043 16.233,3.321 14.566,1.604 zM13.564,6.983 C12.389,8.327 9.158,11.102 7.999,12.086 C6.839,11.102 3.609,8.328 2.434,6.983 C1.281,5.663 1.270,3.783 2.409,2.610 C2.991,2.011 3.754,1.711 4.518,1.711 C5.281,1.711 6.045,2.011 6.627,2.610 C6.627,2.610 7.495,3.505 7.495,3.505 C7.599,3.611 7.729,3.675 7.866,3.697 C8.088,3.747 8.329,3.682 8.502,3.505 C8.502,3.505 9.371,2.610 9.371,2.610 C10.534,1.412 12.426,1.412 13.589,2.610 C14.727,3.783 14.717,5.663 13.564,6.983 z" fill="#8E8E90" />
</svg>
