<svg version="1.1" xmlns="http://www.w3.org/2000/svg" xmlns:xlink="http://www.w3.org/1999/xlink" width="22" height="20" viewBox="0 0 22 20">
<path id="Forma-1" d="M20.217,1.954 C17.826,-0.660 13.937,-0.660 11.546,1.954 C11.546,1.954 10.991,2.560 10.991,2.560 C10.991,2.560 10.436,1.954 10.436,1.954 C8.045,-0.660 4.155,-0.660 1.765,1.954 C-0.577,4.515 -0.592,8.574 1.729,11.397 C3.847,13.970 10.093,19.529 10.358,19.764 C10.538,19.924 10.754,20.002 10.969,20.002 C10.977,20.002 10.984,20.002 10.991,20.002 C11.213,20.014 11.437,19.929 11.623,19.764 C11.888,19.529 18.134,13.970 20.253,11.396 C22.574,8.574 22.559,4.515 20.217,1.954 zM18.810,9.977 C17.159,11.982 12.620,16.119 10.991,17.587 C9.361,16.119 4.823,11.983 3.172,9.977 C1.553,8.008 1.537,5.205 3.137,3.456 C3.954,2.563 5.027,2.116 6.100,2.116 C7.173,2.116 8.246,2.562 9.063,3.456 C9.063,3.456 10.284,4.790 10.284,4.790 C10.429,4.949 10.612,5.044 10.804,5.077 C11.116,5.150 11.454,5.055 11.697,4.790 C11.697,4.790 12.918,3.456 12.918,3.456 C14.553,1.669 17.211,1.669 18.844,3.456 C20.444,5.205 20.429,8.008 18.810,9.977 z" fill="#101519" />
</svg>
