<svg version="1.1" xmlns="http://www.w3.org/2000/svg" xmlns:xlink="http://www.w3.org/1999/xlink" width="20" height="16" viewBox="0 0 20 16">
<path id="Фигура-3037" d="M19.117,7.200 C19.117,7.200 18.232,7.200 18.232,7.200 C18.232,7.200 18.232,15.111 18.232,15.111 C18.232,15.644 17.878,16.000 17.347,16.000 C16.816,16.000 16.462,15.644 16.462,15.111 C16.462,15.111 16.462,7.200 16.462,7.200 C16.462,7.200 15.666,7.200 15.666,7.200 C15.135,7.200 14.781,6.844 14.781,6.311 C14.781,5.778 15.135,5.422 15.666,5.422 C15.666,5.422 16.462,5.422 16.462,5.422 C16.462,5.422 16.462,0.889 16.462,0.889 C16.462,0.356 16.816,-0.000 17.347,-0.000 C17.878,-0.000 18.232,0.356 18.232,0.889 C18.232,0.889 18.232,5.422 18.232,5.422 C18.232,5.422 19.117,5.422 19.117,5.422 C19.648,5.422 20.002,5.778 20.002,6.311 C20.002,6.844 19.559,7.200 19.117,7.200 zM11.684,12.711 C11.684,12.711 10.887,12.711 10.887,12.711 C10.887,12.711 10.887,15.111 10.887,15.111 C10.887,15.644 10.445,16.000 10.003,16.000 C9.471,16.000 9.117,15.644 9.117,15.111 C9.117,15.111 9.117,12.711 9.117,12.711 C9.117,12.711 8.321,12.711 8.321,12.711 C7.790,12.711 7.436,12.355 7.436,11.822 C7.436,11.289 7.790,10.933 8.321,10.933 C8.321,10.933 9.117,10.933 9.117,10.933 C9.117,10.933 9.117,0.889 9.117,0.889 C9.117,0.356 9.471,-0.000 10.003,-0.000 C10.533,-0.000 10.887,0.356 10.887,0.889 C10.887,0.889 10.887,10.933 10.887,10.933 C10.887,10.933 11.772,10.933 11.772,10.933 C12.303,10.933 12.657,11.289 12.657,11.822 C12.657,12.355 12.215,12.711 11.684,12.711 zM4.339,4.889 C4.339,4.889 3.454,4.889 3.454,4.889 C3.454,4.889 3.454,15.111 3.454,15.111 C3.454,15.644 3.100,16.000 2.569,16.000 C2.038,16.000 1.684,15.644 1.684,15.111 C1.684,15.111 1.684,4.889 1.684,4.889 C1.684,4.889 0.888,4.889 0.888,4.889 C0.357,4.889 0.003,4.533 0.003,4.000 C0.003,3.466 0.357,3.111 0.888,3.111 C0.888,3.111 1.684,3.111 1.684,3.111 C1.684,3.111 1.684,0.889 1.684,0.889 C1.684,0.356 2.038,-0.000 2.569,-0.000 C3.100,-0.000 3.454,0.356 3.454,0.889 C3.454,0.889 3.454,3.111 3.454,3.111 C3.454,3.111 4.339,3.111 4.339,3.111 C4.870,3.111 5.224,3.466 5.224,4.000 C5.224,4.533 4.781,4.889 4.339,4.889 z" fill="#FFFFFF" />
</svg>
