<svg version="1.1" xmlns="http://www.w3.org/2000/svg" xmlns:xlink="http://www.w3.org/1999/xlink" width="48" height="70" viewBox="0 0 48 70">
<path id="Forma-1" d="M46.084,24.088 C46.604,25.082 46.548,26.373 45.946,27.653 C46.069,27.799 46.172,27.966 46.245,28.154 C46.467,28.730 46.378,29.367 46.006,29.859 C46.006,29.859 33.017,46.989 33.017,46.989 C32.678,47.437 32.045,47.520 31.604,47.175 C31.164,46.829 31.082,46.186 31.421,45.738 C31.421,45.738 39.670,34.859 39.670,34.859 C39.600,34.846 39.529,34.834 39.459,34.818 C38.467,34.588 37.618,34.023 36.798,33.476 C36.035,32.969 35.315,32.489 34.622,32.384 C33.934,32.280 33.110,32.523 32.238,32.780 C31.292,33.059 30.315,33.348 29.292,33.270 C28.273,33.192 27.349,32.757 26.455,32.337 C25.630,31.949 24.851,31.583 24.153,31.580 C24.151,31.580 24.150,31.580 24.147,31.580 C23.451,31.580 22.672,31.941 21.847,32.323 C20.951,32.737 20.024,33.167 19.004,33.238 C17.983,33.310 17.006,33.016 16.061,32.731 C15.191,32.468 14.368,32.220 13.680,32.321 C12.987,32.422 12.264,32.897 11.498,33.400 C10.674,33.941 9.822,34.501 8.828,34.725 C8.649,34.764 8.470,34.790 8.290,34.808 C8.290,34.808 16.590,45.756 16.590,45.756 C16.930,46.204 16.848,46.847 16.407,47.193 C16.224,47.337 16.008,47.406 15.793,47.406 C15.491,47.406 15.193,47.268 14.994,47.006 C14.994,47.006 1.993,29.859 1.993,29.859 C1.621,29.368 1.532,28.731 1.754,28.154 C1.826,27.967 1.929,27.799 2.053,27.653 C1.451,26.373 1.395,25.082 1.914,24.088 C0.140,23.180 -0.512,20.487 0.439,17.737 C1.341,15.133 3.334,13.485 5.193,13.677 C5.292,12.854 5.733,12.112 6.416,11.522 C6.130,10.351 6.218,8.945 6.684,7.602 C7.585,4.996 9.579,3.350 11.437,3.542 C11.679,1.528 13.966,-0.001 16.842,-0.001 C19.728,-0.001 22.022,1.540 22.249,3.565 C22.816,3.473 23.414,3.556 23.999,3.802 C24.528,3.579 25.067,3.490 25.583,3.542 C25.824,1.529 28.111,-0.001 30.987,-0.001 C33.874,-0.001 36.168,1.540 36.395,3.565 C37.301,3.419 38.286,3.717 39.168,4.417 C40.097,5.157 40.860,6.287 41.315,7.602 C41.800,9.001 41.876,10.453 41.551,11.647 C42.162,12.221 42.552,12.925 42.639,13.701 C43.545,13.555 44.531,13.853 45.412,14.553 C46.342,15.293 47.104,16.423 47.560,17.737 C48.511,20.487 47.859,23.180 46.084,24.088 zM6.704,32.717 C7.336,32.796 7.905,32.833 8.393,32.724 C9.033,32.580 9.700,32.142 10.405,31.679 C11.319,31.078 12.264,30.457 13.394,30.292 C14.519,30.129 15.595,30.453 16.635,30.766 C17.443,31.010 18.207,31.241 18.865,31.194 C19.521,31.148 20.246,30.813 21.013,30.458 C22.000,30.001 23.017,29.529 24.159,29.532 C25.297,29.535 26.316,30.014 27.301,30.477 C28.066,30.836 28.788,31.176 29.444,31.226 C30.101,31.277 30.867,31.051 31.677,30.812 C32.719,30.504 33.796,30.187 34.920,30.358 C36.050,30.529 36.992,31.156 37.902,31.763 C38.604,32.230 39.268,32.672 39.906,32.819 C40.298,32.910 40.739,32.905 41.180,32.868 C41.180,32.868 44.107,29.006 44.107,29.006 C41.477,28.567 35.318,27.613 29.190,27.208 C28.002,27.129 26.865,27.075 25.790,27.045 C25.747,27.043 25.703,27.042 25.660,27.042 C25.492,27.037 25.325,27.033 25.160,27.030 C25.063,27.028 24.967,27.027 24.871,27.025 C24.754,27.023 24.636,27.021 24.521,27.020 C24.303,27.018 24.087,27.016 23.872,27.016 C23.666,27.016 23.460,27.018 23.252,27.020 C23.142,27.021 23.031,27.023 22.919,27.024 C22.827,27.026 22.736,27.027 22.643,27.029 C22.486,27.033 22.327,27.036 22.166,27.041 C22.127,27.042 22.089,27.043 22.051,27.043 C21.030,27.073 19.947,27.125 18.810,27.200 C18.810,27.200 18.810,27.200 18.809,27.200 C12.768,27.601 6.552,28.564 3.892,29.008 C3.892,29.008 6.704,32.717 6.704,32.717 zM23.915,23.134 C24.946,23.134 25.784,22.281 25.784,21.233 C25.784,20.185 24.946,19.332 23.915,19.332 C22.884,19.332 22.045,20.185 22.045,21.233 C22.045,22.281 22.884,23.134 23.915,23.134 zM20.522,23.153 C20.233,23.551 19.873,23.871 19.449,24.088 C19.452,24.094 19.455,24.101 19.458,24.108 C19.496,24.180 19.530,24.254 19.562,24.330 C19.574,24.361 19.584,24.392 19.595,24.422 C19.615,24.476 19.636,24.530 19.653,24.585 C19.664,24.621 19.673,24.658 19.683,24.695 C19.697,24.746 19.711,24.797 19.723,24.849 C19.732,24.889 19.738,24.930 19.746,24.971 C19.753,25.010 19.762,25.048 19.768,25.088 C20.753,25.034 21.731,24.996 22.686,24.979 C21.762,24.664 20.991,24.006 20.522,23.153 zM25.140,24.980 C26.157,24.999 27.191,25.039 28.230,25.096 C28.236,25.053 28.246,25.011 28.253,24.969 C28.261,24.930 28.266,24.892 28.275,24.855 C28.287,24.799 28.302,24.746 28.317,24.692 C28.326,24.657 28.334,24.622 28.345,24.588 C28.363,24.529 28.385,24.472 28.406,24.415 C28.417,24.387 28.426,24.360 28.437,24.332 C28.471,24.249 28.508,24.167 28.550,24.088 C28.400,24.010 28.256,23.918 28.121,23.814 C27.839,23.598 27.591,23.327 27.382,23.011 C26.922,23.933 26.117,24.648 25.140,24.980 zM7.187,14.031 C7.187,14.140 7.209,14.453 7.413,14.996 C7.574,15.425 7.434,15.912 7.070,16.185 C6.706,16.459 6.208,16.452 5.852,16.169 C5.498,15.888 5.268,15.790 5.186,15.760 C4.377,15.470 2.988,16.546 2.340,18.417 C1.692,20.289 2.112,22.012 2.922,22.302 C3.155,22.385 3.558,22.422 4.002,22.401 C4.017,22.400 4.033,22.400 4.049,22.400 C4.494,22.400 4.889,22.698 5.015,23.136 C5.146,23.589 4.955,24.075 4.553,24.312 C4.061,24.602 3.851,24.828 3.784,24.913 C3.448,25.333 3.523,26.113 3.946,26.923 C6.960,26.427 12.318,25.627 17.737,25.221 C17.734,25.208 17.730,25.194 17.726,25.181 C17.724,25.174 17.721,25.168 17.719,25.160 C17.704,25.120 17.687,25.082 17.667,25.045 C17.663,25.038 17.659,25.031 17.655,25.024 C17.634,24.986 17.610,24.948 17.581,24.912 C17.573,24.902 17.563,24.889 17.550,24.875 C17.540,24.865 17.529,24.852 17.517,24.840 C17.512,24.835 17.509,24.831 17.504,24.826 C17.486,24.808 17.466,24.787 17.443,24.767 C17.442,24.766 17.442,24.765 17.442,24.765 C17.324,24.657 17.134,24.504 16.836,24.328 C16.828,24.322 16.821,24.317 16.812,24.312 C16.810,24.311 16.809,24.310 16.807,24.309 C16.800,24.305 16.793,24.301 16.787,24.296 C16.767,24.285 16.751,24.269 16.732,24.255 C16.729,24.253 16.725,24.251 16.721,24.248 C16.701,24.233 16.680,24.218 16.661,24.202 C16.640,24.184 16.622,24.163 16.603,24.144 C16.583,24.123 16.561,24.104 16.543,24.081 C16.526,24.061 16.512,24.038 16.497,24.017 C16.481,23.992 16.463,23.968 16.448,23.943 C16.435,23.921 16.426,23.898 16.415,23.875 C16.401,23.847 16.387,23.821 16.376,23.792 C16.368,23.769 16.362,23.746 16.355,23.722 C16.346,23.692 16.336,23.663 16.330,23.632 C16.325,23.609 16.323,23.584 16.320,23.559 C16.316,23.528 16.311,23.498 16.310,23.466 C16.309,23.441 16.311,23.416 16.313,23.390 C16.313,23.359 16.313,23.328 16.317,23.297 C16.320,23.271 16.327,23.245 16.332,23.219 C16.338,23.192 16.341,23.164 16.349,23.137 C16.350,23.133 16.352,23.130 16.353,23.127 C16.354,23.125 16.354,23.122 16.355,23.119 C16.361,23.096 16.372,23.076 16.381,23.053 C16.392,23.024 16.402,22.994 16.416,22.966 C16.426,22.946 16.438,22.928 16.449,22.910 C16.466,22.879 16.482,22.849 16.503,22.821 C16.511,22.809 16.521,22.799 16.530,22.788 C16.707,22.562 16.972,22.420 17.265,22.406 C17.275,22.405 17.284,22.403 17.295,22.403 C17.302,22.403 17.317,22.402 17.327,22.401 C17.332,22.401 17.337,22.403 17.342,22.403 C17.347,22.403 17.351,22.401 17.356,22.401 C17.366,22.402 17.381,22.403 17.388,22.403 C17.388,22.403 17.388,22.403 17.388,22.403 C17.392,22.403 17.397,22.403 17.401,22.403 C17.402,22.403 17.402,22.403 17.403,22.403 C17.777,22.418 18.120,22.390 18.351,22.330 C18.383,22.322 18.414,22.312 18.442,22.302 C18.468,22.292 18.493,22.282 18.518,22.271 C18.898,22.087 19.182,21.574 19.291,20.881 C19.391,20.179 19.312,19.328 19.073,18.566 C19.057,18.516 19.041,18.467 19.024,18.418 C19.000,18.347 18.973,18.277 18.946,18.207 C18.940,18.191 18.934,18.175 18.927,18.159 C18.904,18.100 18.880,18.042 18.854,17.984 C18.850,17.975 18.846,17.965 18.841,17.955 C18.780,17.816 18.713,17.680 18.643,17.549 C18.638,17.541 18.634,17.532 18.629,17.523 C18.598,17.468 18.567,17.413 18.535,17.358 C18.528,17.348 18.522,17.336 18.516,17.326 C18.483,17.272 18.449,17.218 18.415,17.165 C18.394,17.134 18.374,17.104 18.353,17.073 C18.342,17.057 18.330,17.041 18.319,17.024 C17.692,16.130 16.909,15.644 16.337,15.722 C16.333,15.722 16.328,15.724 16.323,15.724 C16.301,15.728 16.280,15.732 16.258,15.737 C16.232,15.743 16.207,15.751 16.183,15.759 C16.181,15.760 16.180,15.760 16.178,15.760 C16.036,15.811 15.856,15.916 15.661,16.057 C15.544,16.142 15.422,16.240 15.301,16.347 C15.259,16.384 15.214,16.417 15.168,16.445 C15.164,16.448 15.161,16.451 15.158,16.453 C15.113,16.480 15.067,16.503 15.020,16.522 C15.014,16.525 15.008,16.528 15.002,16.530 C14.956,16.548 14.909,16.562 14.861,16.573 C14.854,16.575 14.847,16.577 14.839,16.578 C14.792,16.588 14.744,16.594 14.696,16.597 C14.688,16.598 14.680,16.598 14.672,16.598 C14.661,16.598 14.650,16.600 14.638,16.600 C14.615,16.600 14.593,16.596 14.570,16.594 C14.547,16.592 14.524,16.592 14.502,16.589 C14.470,16.584 14.438,16.577 14.406,16.568 C14.385,16.564 14.365,16.560 14.344,16.554 C14.309,16.543 14.275,16.528 14.242,16.514 C14.225,16.506 14.208,16.501 14.191,16.492 C14.142,16.468 14.094,16.439 14.048,16.405 C13.668,16.125 13.528,15.616 13.710,15.177 C13.986,14.512 14.007,14.133 14.007,14.031 C14.007,14.004 14.005,13.976 14.003,13.948 C13.996,13.877 13.978,13.805 13.952,13.733 C13.785,13.543 13.636,13.338 13.506,13.119 C13.357,12.985 13.177,12.859 12.971,12.745 C12.352,12.417 11.537,12.210 10.751,12.186 C10.700,12.185 10.649,12.184 10.597,12.184 C10.488,12.184 10.380,12.188 10.274,12.193 C10.263,12.194 10.252,12.195 10.241,12.195 C10.147,12.201 10.055,12.209 9.963,12.220 C9.929,12.223 9.895,12.227 9.861,12.231 C9.796,12.240 9.732,12.250 9.667,12.260 C9.588,12.274 9.510,12.289 9.433,12.305 C9.417,12.309 9.400,12.312 9.384,12.316 C8.071,12.611 7.187,13.352 7.187,14.031 zM18.711,11.096 C18.711,10.048 17.873,9.196 16.842,9.196 C15.811,9.196 14.972,10.048 14.972,11.096 C14.972,11.371 15.031,11.633 15.135,11.869 C15.324,12.076 15.486,12.297 15.618,12.531 C15.946,12.821 16.374,12.998 16.842,12.998 C17.873,12.998 18.711,12.144 18.711,11.096 zM25.588,10.074 C25.588,10.001 25.585,9.926 25.581,9.851 C25.580,9.828 25.578,9.805 25.577,9.783 C25.573,9.728 25.569,9.672 25.564,9.617 C25.561,9.592 25.559,9.567 25.556,9.543 C25.549,9.482 25.541,9.421 25.532,9.360 C25.529,9.342 25.527,9.326 25.525,9.308 C25.513,9.230 25.499,9.151 25.483,9.072 C25.480,9.056 25.476,9.038 25.472,9.020 C25.459,8.959 25.445,8.897 25.430,8.835 C25.424,8.810 25.418,8.784 25.411,8.759 C25.397,8.702 25.381,8.645 25.365,8.588 C25.358,8.565 25.352,8.541 25.345,8.517 C25.321,8.438 25.296,8.360 25.269,8.281 C25.232,8.174 25.191,8.069 25.148,7.964 C25.142,7.950 25.136,7.935 25.130,7.921 C25.087,7.819 25.042,7.720 24.994,7.622 C24.988,7.610 24.983,7.598 24.977,7.586 C24.822,7.272 24.643,6.981 24.445,6.723 C24.441,6.718 24.438,6.713 24.435,6.708 C24.370,6.624 24.305,6.545 24.237,6.468 C24.231,6.462 24.225,6.456 24.220,6.449 C24.152,6.374 24.083,6.301 24.012,6.234 C24.009,6.231 24.006,6.229 24.003,6.225 C23.937,6.163 23.870,6.106 23.803,6.050 C23.791,6.041 23.780,6.032 23.769,6.023 C23.717,5.982 23.666,5.945 23.615,5.910 C23.593,5.894 23.570,5.881 23.547,5.866 C23.135,5.602 22.734,5.512 22.423,5.624 C22.197,5.705 21.869,5.924 21.546,6.211 C21.192,6.524 20.673,6.548 20.293,6.268 C19.913,5.989 19.773,5.479 19.955,5.041 C20.230,4.376 20.252,3.996 20.252,3.896 C20.252,2.838 18.452,2.048 16.842,2.048 C15.232,2.048 13.431,2.838 13.431,3.896 C13.431,4.005 13.454,4.317 13.657,4.860 C13.818,5.290 13.679,5.776 13.315,6.049 C12.951,6.323 12.453,6.316 12.096,6.033 C11.743,5.752 11.513,5.654 11.431,5.624 C10.450,5.273 9.119,6.737 8.584,8.282 C8.323,9.037 8.221,9.819 8.282,10.495 C8.807,10.321 9.379,10.206 9.985,10.159 C9.990,10.159 9.996,10.158 10.002,10.158 C10.087,10.151 10.173,10.146 10.260,10.143 C10.275,10.143 10.290,10.141 10.305,10.140 C10.402,10.137 10.499,10.135 10.598,10.135 C10.856,10.135 11.109,10.147 11.357,10.172 C11.369,10.172 11.381,10.174 11.392,10.175 C11.438,10.179 11.482,10.185 11.527,10.191 C11.568,10.195 11.609,10.200 11.649,10.204 C12.126,10.270 12.578,10.378 12.999,10.524 C13.272,8.617 14.891,7.147 16.842,7.147 C18.907,7.147 20.600,8.794 20.719,10.864 C21.610,10.403 22.710,10.135 23.915,10.135 C24.048,10.135 24.178,10.139 24.308,10.145 C24.327,10.147 24.346,10.147 24.365,10.149 C24.788,10.172 25.195,10.230 25.583,10.316 C25.583,10.309 25.584,10.302 25.584,10.295 C25.587,10.224 25.589,10.151 25.588,10.077 C25.588,10.076 25.588,10.076 25.588,10.074 zM24.123,12.189 C24.053,12.186 23.984,12.184 23.915,12.184 C22.305,12.184 20.504,12.974 20.504,14.031 C20.504,14.140 20.526,14.453 20.730,14.997 C20.892,15.426 20.751,15.912 20.387,16.185 C20.343,16.219 20.296,16.248 20.248,16.274 C20.248,16.274 20.248,16.274 20.248,16.274 C20.314,16.384 20.377,16.497 20.438,16.613 C20.440,16.617 20.443,16.621 20.445,16.626 C20.503,16.737 20.560,16.852 20.614,16.968 C20.616,16.973 20.618,16.976 20.620,16.980 C20.671,17.091 20.720,17.205 20.767,17.321 C20.776,17.343 20.785,17.365 20.794,17.388 C20.840,17.502 20.884,17.618 20.924,17.737 C21.009,17.983 21.081,18.228 21.141,18.471 C21.847,17.739 22.829,17.283 23.915,17.283 C25.072,17.283 26.112,17.800 26.824,18.619 C26.834,18.573 26.844,18.527 26.855,18.480 C26.916,18.232 26.989,17.983 27.074,17.737 C27.108,17.640 27.143,17.545 27.180,17.450 C27.189,17.426 27.200,17.400 27.210,17.375 C27.239,17.302 27.270,17.229 27.301,17.156 C27.310,17.135 27.319,17.114 27.328,17.092 C27.413,16.901 27.504,16.716 27.601,16.538 C27.601,16.536 27.602,16.535 27.603,16.535 C27.580,16.525 27.559,16.514 27.537,16.503 C27.522,16.497 27.508,16.491 27.494,16.484 C27.450,16.461 27.407,16.434 27.366,16.405 C26.985,16.125 26.846,15.616 27.028,15.176 C27.304,14.512 27.325,14.132 27.325,14.031 C27.325,13.634 27.033,13.223 26.534,12.889 C25.911,12.486 25.001,12.224 24.123,12.189 zM39.414,8.282 C39.090,7.346 38.548,6.526 37.926,6.032 C37.434,5.640 36.939,5.492 36.568,5.624 C36.342,5.705 36.015,5.924 35.691,6.211 C35.338,6.524 34.818,6.548 34.438,6.268 C34.059,5.989 33.919,5.480 34.101,5.041 C34.376,4.376 34.398,3.996 34.398,3.896 C34.398,2.838 32.597,2.049 30.987,2.049 C29.378,2.049 27.577,2.838 27.577,3.896 C27.577,4.004 27.599,4.317 27.803,4.860 C27.964,5.290 27.825,5.777 27.461,6.050 C27.185,6.256 26.832,6.303 26.522,6.190 C26.523,6.192 26.524,6.193 26.525,6.195 C26.582,6.293 26.637,6.394 26.690,6.496 C26.702,6.517 26.713,6.539 26.724,6.560 C26.773,6.657 26.822,6.756 26.868,6.856 C26.871,6.862 26.874,6.869 26.877,6.875 C26.925,6.979 26.970,7.085 27.014,7.193 C27.025,7.219 27.036,7.246 27.045,7.272 C27.088,7.380 27.129,7.488 27.168,7.599 C27.168,7.600 27.168,7.601 27.168,7.602 C27.169,7.602 27.169,7.602 27.169,7.603 C27.215,7.735 27.255,7.868 27.294,8.000 C27.303,8.030 27.312,8.060 27.320,8.090 C27.356,8.222 27.390,8.354 27.420,8.485 C27.423,8.501 27.426,8.517 27.429,8.532 C27.455,8.654 27.478,8.774 27.498,8.895 C27.503,8.923 27.508,8.950 27.513,8.978 C27.527,9.071 27.540,9.164 27.551,9.258 C28.203,8.004 29.498,7.147 30.987,7.147 C32.938,7.147 34.557,8.617 34.831,10.524 C35.464,10.305 36.168,10.172 36.918,10.142 C37.022,10.138 37.126,10.135 37.232,10.135 C37.335,10.135 37.436,10.138 37.538,10.142 C37.562,10.143 37.585,10.144 37.608,10.145 C37.691,10.149 37.774,10.154 37.855,10.161 C37.874,10.162 37.892,10.163 37.911,10.165 C38.555,10.221 39.163,10.354 39.713,10.552 C39.785,9.865 39.685,9.063 39.414,8.282 zM29.118,11.096 C29.118,12.144 29.957,12.998 30.987,12.998 C31.455,12.998 31.883,12.821 32.211,12.531 C32.343,12.298 32.505,12.076 32.694,11.870 C32.798,11.633 32.857,11.371 32.857,11.096 C32.857,10.048 32.019,9.196 30.987,9.196 C29.957,9.196 29.118,10.048 29.118,11.096 zM45.658,18.417 C45.334,17.481 44.792,16.661 44.170,16.167 C43.678,15.776 43.183,15.627 42.812,15.760 C42.586,15.841 42.258,16.060 41.935,16.347 C41.582,16.660 41.062,16.684 40.682,16.405 C40.303,16.125 40.162,15.616 40.345,15.176 C40.620,14.512 40.642,14.132 40.642,14.031 C40.642,13.430 39.947,12.779 38.876,12.433 C38.819,12.415 38.761,12.397 38.702,12.381 C38.667,12.371 38.631,12.361 38.595,12.352 C38.509,12.330 38.422,12.310 38.333,12.293 C38.317,12.289 38.300,12.285 38.283,12.283 C38.176,12.262 38.067,12.244 37.957,12.230 C37.954,12.230 37.951,12.229 37.948,12.229 C37.714,12.199 37.473,12.184 37.231,12.184 C37.180,12.184 37.129,12.185 37.078,12.186 C36.292,12.210 35.475,12.417 34.857,12.746 C34.651,12.859 34.472,12.985 34.322,13.119 C34.193,13.338 34.044,13.543 33.877,13.733 C33.851,13.805 33.833,13.877 33.826,13.948 C33.823,13.976 33.821,14.004 33.821,14.031 C33.821,14.140 33.843,14.453 34.047,14.997 C34.208,15.426 34.068,15.912 33.704,16.185 C33.341,16.459 32.842,16.452 32.486,16.169 C32.133,15.888 31.903,15.790 31.821,15.760 C31.794,15.751 31.768,15.743 31.741,15.737 C31.717,15.731 31.693,15.726 31.669,15.723 C31.667,15.722 31.664,15.722 31.662,15.721 C31.090,15.643 30.306,16.131 29.678,17.025 C29.668,17.041 29.658,17.055 29.648,17.069 C29.626,17.101 29.604,17.133 29.583,17.166 C29.549,17.218 29.515,17.271 29.483,17.325 C29.476,17.336 29.469,17.348 29.462,17.360 C29.431,17.413 29.401,17.467 29.370,17.521 C29.365,17.531 29.360,17.540 29.355,17.549 C29.285,17.680 29.219,17.815 29.157,17.954 C29.152,17.964 29.149,17.975 29.144,17.984 C29.119,18.042 29.095,18.100 29.071,18.159 C29.065,18.175 29.059,18.191 29.052,18.207 C29.025,18.276 28.999,18.347 28.974,18.417 C28.650,19.353 28.568,20.338 28.748,21.119 C28.891,21.738 29.185,22.169 29.556,22.301 C29.585,22.312 29.615,22.321 29.648,22.330 C29.878,22.390 30.223,22.417 30.595,22.403 C30.596,22.403 30.597,22.403 30.598,22.403 C30.602,22.403 30.606,22.403 30.611,22.402 C30.611,22.402 30.611,22.402 30.611,22.402 C30.618,22.401 30.634,22.401 30.643,22.401 C30.648,22.401 30.653,22.402 30.658,22.401 C30.663,22.402 30.668,22.401 30.673,22.401 C30.683,22.401 30.698,22.402 30.704,22.402 C30.714,22.403 30.723,22.404 30.733,22.405 C30.736,22.405 30.738,22.405 30.741,22.405 C30.863,22.412 30.981,22.440 31.089,22.489 C31.099,22.494 31.109,22.497 31.119,22.500 C31.151,22.517 31.181,22.537 31.212,22.556 C31.228,22.566 31.244,22.574 31.259,22.585 C31.284,22.602 31.308,22.624 31.332,22.645 C31.349,22.660 31.368,22.674 31.385,22.690 C31.405,22.710 31.422,22.733 31.441,22.755 C31.458,22.775 31.477,22.794 31.493,22.817 C31.508,22.838 31.521,22.862 31.535,22.884 C31.551,22.910 31.567,22.933 31.580,22.960 C31.592,22.984 31.600,23.008 31.610,23.033 C31.620,23.056 31.631,23.077 31.639,23.102 C31.641,23.108 31.642,23.114 31.644,23.120 C31.645,23.126 31.648,23.130 31.650,23.136 C31.656,23.157 31.657,23.177 31.662,23.197 C31.669,23.228 31.676,23.258 31.680,23.288 C31.683,23.314 31.685,23.340 31.686,23.366 C31.688,23.396 31.690,23.427 31.689,23.457 C31.688,23.483 31.685,23.509 31.682,23.535 C31.679,23.564 31.676,23.593 31.670,23.623 C31.665,23.648 31.658,23.673 31.651,23.698 C31.644,23.727 31.636,23.755 31.626,23.782 C31.617,23.806 31.606,23.830 31.595,23.854 C31.583,23.880 31.571,23.906 31.557,23.932 C31.544,23.954 31.529,23.976 31.515,23.998 C31.499,24.023 31.482,24.046 31.464,24.069 C31.448,24.089 31.429,24.109 31.411,24.129 C31.391,24.150 31.372,24.171 31.350,24.190 C31.329,24.209 31.307,24.226 31.285,24.242 C31.270,24.254 31.258,24.267 31.242,24.277 C31.225,24.289 31.206,24.301 31.189,24.311 C31.188,24.311 31.187,24.312 31.187,24.312 C31.180,24.316 31.175,24.319 31.169,24.324 C31.168,24.324 31.167,24.324 31.166,24.325 C30.808,24.538 30.603,24.716 30.495,24.826 C30.492,24.830 30.489,24.833 30.486,24.837 C30.472,24.851 30.460,24.863 30.450,24.875 C30.437,24.889 30.426,24.902 30.418,24.912 C30.418,24.912 30.418,24.913 30.418,24.913 C30.390,24.948 30.366,24.986 30.344,25.023 C30.340,25.031 30.336,25.039 30.331,25.046 C30.312,25.083 30.294,25.122 30.280,25.161 C30.277,25.168 30.275,25.177 30.273,25.184 C30.267,25.198 30.264,25.213 30.260,25.227 C35.743,25.636 41.064,26.428 44.054,26.922 C44.477,26.112 44.552,25.332 44.216,24.912 C44.148,24.828 43.938,24.601 43.446,24.312 C43.044,24.075 42.853,23.589 42.983,23.136 C43.114,22.683 43.536,22.379 43.997,22.401 C44.440,22.422 44.844,22.385 45.077,22.302 C45.887,22.012 46.307,20.289 45.658,18.417 zM37.232,25.182 C35.090,25.182 33.347,23.411 33.347,21.233 C33.347,19.055 35.090,17.283 37.232,17.283 C39.374,17.283 41.117,19.055 41.117,21.233 C41.117,23.411 39.374,25.182 37.232,25.182 zM37.232,19.332 C36.201,19.332 35.363,20.185 35.363,21.233 C35.363,22.281 36.201,23.134 37.232,23.134 C38.263,23.134 39.102,22.281 39.102,21.233 C39.102,20.185 38.263,19.332 37.232,19.332 zM14.482,21.233 C14.482,23.411 12.739,25.182 10.597,25.182 C8.455,25.182 6.713,23.411 6.713,21.233 C6.713,19.055 8.455,17.283 10.597,17.283 C12.739,17.283 14.482,19.055 14.482,21.233 zM8.728,21.233 C8.728,22.280 9.567,23.133 10.597,23.133 C11.628,23.133 12.467,22.280 12.467,21.233 C12.467,20.184 11.628,19.331 10.597,19.331 C9.567,19.331 8.728,20.184 8.728,21.233 zM13.555,49.548 C14.242,48.849 15.132,48.485 16.118,48.490 C18.418,48.507 20.809,50.507 21.801,51.440 C22.124,51.227 22.508,51.102 22.921,51.102 C22.921,51.102 25.078,51.102 25.078,51.102 C25.490,51.102 25.874,51.227 26.197,51.440 C27.185,50.511 29.578,48.507 31.880,48.490 C32.872,48.484 33.756,48.849 34.444,49.548 C34.680,49.788 34.820,50.124 34.999,50.877 C35.601,53.408 35.602,56.089 35.002,58.631 C34.822,59.393 34.681,59.732 34.444,59.973 C33.762,60.666 32.887,61.031 31.909,61.031 C31.899,61.031 31.890,61.031 31.880,61.031 C30.807,61.023 29.713,60.583 28.751,60.021 C28.751,60.021 29.843,64.021 29.843,64.021 C30.234,65.453 29.951,66.954 29.066,68.137 C28.181,69.320 26.836,70.000 25.373,70.000 C25.373,70.000 22.631,70.000 22.631,70.000 C21.168,70.000 19.821,69.320 18.937,68.135 C18.051,66.950 17.770,65.449 18.162,64.016 C18.162,64.016 19.260,60.013 19.260,60.013 C18.295,60.579 17.197,61.023 16.118,61.031 C16.108,61.031 16.099,61.031 16.089,61.031 C15.111,61.031 14.236,60.666 13.554,59.973 C13.317,59.732 13.176,59.393 12.996,58.630 C12.396,56.089 12.397,53.408 12.999,50.877 C13.178,50.124 13.318,49.788 13.555,49.548 zM25.078,53.150 C25.078,53.150 22.920,53.150 22.920,53.150 C22.897,53.150 22.879,53.169 22.878,53.193 C22.878,53.193 22.876,56.325 22.876,56.325 C22.876,56.338 22.881,56.348 22.889,56.357 C22.890,56.357 22.890,56.358 22.891,56.358 C22.899,56.366 22.909,56.371 22.921,56.371 C22.921,56.371 25.078,56.371 25.078,56.371 C25.089,56.371 25.100,56.366 25.108,56.358 C25.108,56.357 25.109,56.357 25.109,56.357 C25.116,56.350 25.120,56.339 25.121,56.328 C25.121,56.328 25.122,53.196 25.122,53.196 C25.122,53.171 25.102,53.150 25.078,53.150 zM31.896,58.982 C32.301,58.984 32.630,58.870 32.917,58.621 C32.943,58.541 32.985,58.397 33.043,58.152 C33.568,55.924 33.568,53.576 33.041,51.358 C32.985,51.120 32.943,50.979 32.917,50.901 C32.634,50.655 32.311,50.539 31.910,50.539 C31.905,50.539 31.900,50.539 31.895,50.539 C31.088,50.545 30.031,51.012 28.839,51.891 C27.878,52.597 27.204,53.299 27.197,53.307 C27.197,53.307 27.138,53.368 27.138,53.368 L27.138,56.152 C27.138,56.152 27.192,56.209 27.192,56.209 C27.198,56.215 27.204,56.222 27.210,56.228 C27.261,56.280 27.424,56.445 27.673,56.671 C27.681,56.679 27.688,56.688 27.695,56.695 C28.692,57.603 30.496,58.973 31.896,58.982 zM20.541,66.896 C21.041,67.566 21.803,67.950 22.631,67.950 C22.631,67.950 25.373,67.950 25.373,67.950 C26.201,67.950 26.962,67.566 27.462,66.897 C27.963,66.228 28.123,65.379 27.902,64.569 C27.902,64.569 26.140,58.116 26.140,58.116 C26.137,58.118 26.134,58.119 26.131,58.121 C26.027,58.185 25.917,58.239 25.802,58.283 C25.782,58.290 25.764,58.298 25.744,58.304 C25.713,58.315 25.683,58.326 25.651,58.335 C25.612,58.346 25.573,58.356 25.534,58.366 C25.506,58.372 25.478,58.378 25.450,58.383 C25.407,58.391 25.363,58.398 25.319,58.403 C25.300,58.406 25.281,58.408 25.262,58.410 C25.201,58.416 25.140,58.419 25.078,58.419 C25.078,58.419 22.921,58.419 22.921,58.419 C22.859,58.419 22.798,58.416 22.737,58.410 C22.718,58.408 22.700,58.406 22.681,58.403 C22.635,58.398 22.589,58.391 22.544,58.382 C22.515,58.377 22.487,58.371 22.459,58.364 C22.422,58.355 22.386,58.346 22.350,58.336 C22.319,58.327 22.289,58.316 22.259,58.306 C22.239,58.299 22.220,58.292 22.201,58.285 C22.130,58.258 22.060,58.227 21.993,58.192 C21.991,58.192 21.989,58.191 21.988,58.190 C21.950,58.170 21.913,58.149 21.877,58.127 C21.875,58.126 21.872,58.125 21.870,58.124 C21.870,58.124 20.103,64.566 20.103,64.566 C19.881,65.377 20.040,66.226 20.541,66.896 zM14.955,58.152 C15.013,58.397 15.056,58.541 15.081,58.621 C15.368,58.870 15.692,58.982 16.103,58.982 C16.910,58.976 17.967,58.509 19.160,57.631 C19.642,57.276 20.052,56.922 20.342,56.656 C20.343,56.656 20.343,56.655 20.344,56.654 C20.629,56.393 20.800,56.215 20.802,56.214 C20.802,56.214 20.861,56.152 20.861,56.152 L20.861,53.368 C20.861,53.368 20.806,53.312 20.806,53.312 C20.067,52.541 17.790,50.550 16.101,50.538 C16.097,50.538 16.092,50.538 16.088,50.538 C15.688,50.538 15.364,50.654 15.081,50.901 C15.056,50.979 15.014,51.120 14.957,51.358 C14.430,53.576 14.430,55.924 14.955,58.152 z" fill="#FFFFFF" />
</svg>
