<svg version="1.1" xmlns="http://www.w3.org/2000/svg" xmlns:xlink="http://www.w3.org/1999/xlink" width="40" height="40" viewBox="0 0 40 40">
<g id="Эллипс-653" >
<path id="Эллипс-653-stroke" d="M20.000,0.950 C30.521,0.950 39.050,9.479 39.050,20.000 C39.050,30.521 30.521,39.050 20.000,39.050 C9.479,39.050 0.950,30.521 0.950,20.000 C0.950,9.479 9.479,0.950 20.000,0.950 z" fill="none" stroke="#A766DE" stroke-width="2" />
</g>
<path id="Forma-1" d="M24.216,29.411 C24.216,29.411 15.782,29.411 15.782,29.411 C12.918,29.411 10.588,27.081 10.588,24.216 C10.588,24.216 10.588,15.782 10.588,15.782 C10.588,12.918 12.918,10.587 15.782,10.587 C15.782,10.587 24.216,10.587 24.216,10.587 C27.081,10.587 29.411,12.918 29.411,15.782 C29.411,15.782 29.411,24.216 29.411,24.216 C29.411,27.081 27.081,29.411 24.216,29.411 zM27.741,24.216 C27.741,24.216 27.741,15.782 27.741,15.782 C27.741,13.839 26.160,12.258 24.216,12.258 C24.216,12.258 15.782,12.258 15.782,12.258 C13.839,12.258 12.258,13.839 12.258,15.782 C12.258,15.782 12.258,24.216 12.258,24.216 C12.258,26.160 13.839,27.741 15.782,27.741 C15.782,27.741 24.217,27.741 24.217,27.741 C26.160,27.741 27.741,26.160 27.741,24.216 C27.741,24.216 27.741,24.216 27.741,24.216 zM25.053,16.182 C24.731,16.182 24.415,16.051 24.188,15.824 C23.960,15.596 23.829,15.280 23.829,14.958 C23.829,14.635 23.960,14.318 24.188,14.091 C24.415,13.863 24.731,13.733 25.053,13.733 C25.376,13.733 25.692,13.863 25.919,14.091 C26.148,14.318 26.278,14.635 26.278,14.958 C26.278,15.280 26.148,15.596 25.919,15.824 C25.691,16.051 25.376,16.182 25.053,16.182 zM19.999,24.850 C17.325,24.850 15.149,22.674 15.149,20.000 C15.149,17.325 17.325,15.149 19.999,15.149 C22.674,15.149 24.850,17.325 24.850,20.000 C24.850,22.674 22.674,24.850 19.999,24.850 zM19.999,16.819 C18.246,16.819 16.819,18.246 16.819,20.000 C16.819,21.753 18.246,23.179 19.999,23.179 C21.753,23.179 23.180,21.753 23.180,20.000 C23.180,18.246 21.753,16.819 19.999,16.819 z" fill="#A766DE" />
</svg>
