<svg version="1.1" xmlns="http://www.w3.org/2000/svg" xmlns:xlink="http://www.w3.org/1999/xlink" width="34" height="34" viewBox="0 0 34 34">
<path id="Эллипс-653" d="M17.000,0.000 C26.389,0.000 34.000,7.611 34.000,17.000 C34.000,26.389 26.389,34.000 17.000,34.000 C7.611,34.000 0.000,26.389 0.000,17.000 C0.000,7.611 7.611,0.000 17.000,0.000 z" fill="#A766DE" />
<path id="Forma-1" d="M20.584,24.999 C20.584,24.999 13.415,24.999 13.415,24.999 C10.980,24.999 9.000,23.019 9.000,20.584 C9.000,20.584 9.000,13.415 9.000,13.415 C9.000,10.980 10.980,9.000 13.415,9.000 C13.415,9.000 20.584,9.000 20.584,9.000 C23.019,9.000 25.000,10.980 25.000,13.415 C25.000,13.415 25.000,20.584 25.000,20.584 C25.000,23.019 23.019,24.999 20.584,24.999 zM23.580,13.415 C23.580,11.763 22.236,10.419 20.584,10.419 C20.584,10.419 13.415,10.419 13.415,10.419 C11.763,10.419 10.419,11.763 10.419,13.415 C10.419,13.415 10.419,20.584 10.419,20.584 C10.419,22.236 11.763,23.580 13.415,23.580 C13.415,23.580 20.584,23.580 20.584,23.580 C22.236,23.580 23.580,22.236 23.580,20.584 C23.580,20.584 23.580,13.415 23.580,13.415 zM21.295,13.755 C21.022,13.755 20.753,13.644 20.560,13.450 C20.366,13.256 20.254,12.988 20.254,12.714 C20.254,12.439 20.366,12.171 20.560,11.978 C20.753,11.784 21.022,11.673 21.295,11.673 C21.570,11.673 21.838,11.784 22.032,11.978 C22.226,12.171 22.336,12.439 22.336,12.714 C22.336,12.988 22.226,13.256 22.032,13.450 C21.838,13.644 21.570,13.755 21.295,13.755 zM16.999,21.122 C14.726,21.122 12.877,19.273 12.877,17.000 C12.877,14.726 14.726,12.876 16.999,12.876 C19.273,12.876 21.122,14.726 21.122,17.000 C21.122,19.273 19.273,21.122 16.999,21.122 zM16.999,14.296 C15.509,14.296 14.296,15.509 14.296,17.000 C14.296,18.490 15.509,19.703 16.999,19.703 C18.490,19.703 19.703,18.490 19.703,17.000 C19.703,15.509 18.490,14.296 16.999,14.296 z" fill="#FFFFFF" />
</svg>
