<svg version="1.1" xmlns="http://www.w3.org/2000/svg" xmlns:xlink="http://www.w3.org/1999/xlink" width="20" height="20" viewBox="0 0 20 20">
<path id="Forma-1" d="M14.000,11.999 C15.666,10.777 16.666,8.776 16.666,6.666 C16.666,2.999 13.666,-0.001 10.000,-0.001 C6.333,-0.001 3.333,2.999 3.333,6.666 C3.333,8.776 4.333,10.777 5.999,11.999 C2.777,13.443 0.444,16.443 -0.000,19.999 C-0.000,19.999 2.222,19.999 2.222,19.999 C2.777,16.221 6.110,13.332 10.000,13.332 C13.888,13.332 17.222,16.221 17.777,19.999 C17.777,19.999 19.999,19.999 19.999,19.999 C19.555,16.443 17.222,13.443 14.000,11.999 C14.000,11.999 14.000,11.999 14.000,11.999 zM10.000,11.110 C7.555,11.110 5.555,9.110 5.555,6.666 C5.555,4.221 7.555,2.221 10.000,2.221 C12.444,2.221 14.444,4.221 14.444,6.666 C14.444,9.110 12.444,11.110 10.000,11.110 C10.000,11.110 10.000,11.110 10.000,11.110 z" fill="#F12D4E" />
</svg>
