<svg version="1.1" xmlns="http://www.w3.org/2000/svg" xmlns:xlink="http://www.w3.org/1999/xlink" width="213" height="70" viewBox="0 0 213 70">
<path id="Фигура-706" d="M28.551,66.881 C9.692,57.752 22.690,31.409 0.122,32.965 C0.073,32.967 0.142,33.068 0.151,33.115 C0.104,33.110 0.040,33.104 -0.002,33.104 C3.701,47.049 2.727,67.743 28.551,66.881 z" fill="#B5BF47" />
<path id="Фигура-706" d="M38.861,69.055 C38.812,69.038 38.783,69.028 38.731,69.011 C38.684,69.028 38.649,69.038 38.608,69.055 C25.056,64.364 19.228,55.478 19.298,44.121 C19.227,33.615 24.220,21.187 32.638,8.587 C32.731,8.439 32.829,8.290 32.923,8.152 C32.929,8.142 32.929,8.140 32.938,8.128 C34.682,5.449 36.563,2.732 38.596,-0.001 C38.641,0.053 38.689,0.115 38.731,0.168 C38.778,0.115 38.819,0.053 38.864,-0.001 C40.237,1.845 41.543,3.685 42.785,5.511 C42.049,6.703 41.337,7.889 40.649,9.071 C40.645,9.077 40.645,9.082 40.640,9.088 C40.554,9.229 40.468,9.381 40.386,9.522 C32.853,22.125 28.384,34.554 28.447,45.062 C28.400,54.171 31.750,61.693 39.337,66.735 C39.563,67.279 39.803,67.828 40.056,68.380 C40.056,68.380 40.102,68.404 40.102,68.404 L40.151,68.517 C40.151,68.517 40.222,68.560 40.222,68.560 C39.779,68.729 39.325,68.896 38.861,69.055 C38.861,69.055 38.861,69.055 38.861,69.055 z" fill="#E04579" />
<path id="Фигура-706" d="M45.214,69.996 C45.629,69.834 46.035,69.669 46.434,69.498 C46.434,69.498 46.368,69.459 46.368,69.459 L46.325,69.345 L46.281,69.319 L45.426,67.236 L45.012,66.153 L44.634,65.079 L44.288,64.013 L43.978,62.953 L43.703,61.905 L43.461,60.863 L43.254,59.828 L43.083,58.800 L42.946,57.784 L42.844,56.772 L42.777,55.771 L42.746,54.780 L42.750,53.799 L42.789,52.827 L42.864,51.867 L42.974,50.917 L43.119,49.983 L43.298,49.061 L43.512,48.154 L43.760,47.264 L44.039,46.391 L44.351,45.533 L44.695,44.693 L45.070,43.872 L45.473,43.070 L45.905,42.287 L46.366,41.523 L46.853,40.779 L47.367,40.054 L47.906,39.348 L48.453,38.680 L48.978,38.065 L49.534,37.454 L50.110,36.858 L50.703,36.280 L51.314,35.716 L51.945,35.168 L52.592,34.636 L53.256,34.120 L53.936,33.618 L54.633,33.130 L55.345,32.658 L56.073,32.200 L56.817,31.755 L57.575,31.324 L58.348,30.907 L59.135,30.505 L59.936,30.115 C59.936,30.115 60.018,30.077 60.018,30.077 C57.978,23.478 54.740,16.524 50.551,9.522 C50.469,9.376 50.383,9.234 50.296,9.088 C50.292,9.082 50.292,9.077 50.287,9.071 C48.723,6.385 47.036,3.670 45.218,0.939 C45.178,0.994 45.136,1.059 45.100,1.114 C45.064,1.059 45.022,0.994 44.982,0.939 C43.163,3.670 41.477,6.385 39.913,9.071 C39.908,9.077 39.908,9.082 39.904,9.088 C39.817,9.229 39.731,9.381 39.649,9.522 C32.116,22.125 27.647,34.554 27.711,45.062 C27.652,56.414 32.866,65.302 44.986,69.996 C45.027,69.979 45.059,69.968 45.100,69.952 C45.141,69.968 45.173,69.979 45.214,69.996 z" fill="#FF7AA6" />
<path id="Фигура-706" d="M48.829,67.845 C74.647,68.711 72.126,46.477 75.830,32.532 C75.775,32.532 75.725,32.538 75.687,32.538 C75.687,32.491 75.752,32.396 75.704,32.391 C39.422,30.085 44.283,63.671 48.829,67.845 C48.829,67.845 48.829,67.845 48.829,67.845 z" fill="#B5BF47" />
<path id="Фигура-706" d="M95.332,55.009 L102.331,55.009 L102.331,38.232 L106.088,38.232 L106.088,32.563 L91.574,32.563 L91.574,38.232 L95.332,38.232 L95.332,55.009 L95.332,55.009 zM115.251,55.009 C115.251,55.009 115.251,41.385 115.251,41.385 C115.251,39.702 115.845,38.861 117.038,38.861 C117.585,38.861 118.013,39.031 118.325,39.380 C118.633,39.728 118.789,40.149 118.789,40.642 C118.789,41.115 118.617,41.526 118.278,41.879 C117.934,42.237 117.523,42.414 117.038,42.414 C116.704,42.414 116.408,42.331 116.163,42.165 C116.163,42.165 117.445,49.267 117.445,49.267 C118.925,49.189 120.295,48.758 121.551,47.979 C122.807,47.199 123.808,46.166 124.548,44.876 C125.293,43.583 125.663,42.170 125.663,40.637 C125.663,39.156 125.288,37.753 124.538,36.419 C123.787,35.088 122.750,34.018 121.426,33.213 C120.103,32.408 118.643,32.002 117.038,32.002 C115.887,32.002 114.786,32.216 113.729,32.636 C112.671,33.062 111.732,33.686 110.915,34.512 C110.096,35.343 109.450,36.377 108.970,37.619 C108.491,38.861 108.251,40.274 108.251,41.848 C108.251,41.848 108.251,55.009 108.251,55.009 L115.251,55.009 L115.251,55.009 zM139.891,55.570 C142.028,55.570 144.003,55.039 145.816,53.985 C147.630,52.930 149.063,51.501 150.122,49.694 C151.180,47.891 151.711,45.916 151.711,43.780 C151.711,42.176 151.409,40.653 150.799,39.224 C150.189,37.795 149.340,36.533 148.251,35.447 C147.161,34.366 145.900,33.519 144.467,32.911 C143.029,32.304 141.507,32.002 139.891,32.002 C137.754,32.002 135.779,32.532 133.966,33.587 C132.151,34.641 130.713,36.070 129.655,37.878 C128.598,39.681 128.066,41.650 128.066,43.780 C128.066,45.916 128.598,47.891 129.655,49.694 C130.713,51.501 132.151,52.930 133.966,53.985 C135.779,55.039 137.754,55.570 139.891,55.570 C139.891,55.570 139.891,55.570 139.891,55.570 zM139.891,48.586 C139.239,48.586 138.620,48.461 138.036,48.213 C137.447,47.963 136.931,47.620 136.488,47.179 C136.045,46.737 135.696,46.222 135.451,45.635 C135.201,45.049 135.075,44.430 135.075,43.780 C135.075,42.913 135.289,42.113 135.722,41.376 C136.149,40.642 136.738,40.061 137.478,39.629 C138.224,39.203 139.026,38.985 139.891,38.985 C140.761,38.985 141.569,39.203 142.304,39.629 C143.044,40.061 143.628,40.642 144.055,41.376 C144.488,42.113 144.701,42.913 144.701,43.780 C144.701,44.643 144.488,45.449 144.055,46.186 C143.628,46.929 143.044,47.511 142.304,47.942 C141.569,48.369 140.761,48.586 139.891,48.586 C139.891,48.586 139.891,48.586 139.891,48.586 zM172.010,32.563 L165.001,32.563 C165.001,32.563 165.001,47.589 165.001,47.589 C165.001,48.062 164.834,48.430 164.495,48.706 C164.162,48.981 163.776,49.117 163.343,49.117 C162.968,49.117 162.645,48.977 162.359,48.686 C162.077,48.399 161.936,48.036 161.936,47.589 C161.936,47.589 161.936,32.563 161.936,32.563 L154.932,32.563 C154.932,32.563 154.932,48.805 154.932,48.805 C154.932,50.150 155.161,51.330 155.620,52.348 C156.079,53.372 156.777,54.162 157.715,54.723 C158.653,55.289 159.820,55.570 161.212,55.570 C162.197,55.570 163.015,55.356 163.666,54.936 C164.318,54.509 164.761,54.006 165.001,53.418 C165.001,53.418 165.001,55.009 165.001,55.009 L172.010,55.009 L172.010,32.563 L172.010,32.563 zM158.898,26.703 L158.898,30.137 L168.190,30.137 L168.190,26.703 L158.898,26.703 L158.898,26.703 zM175.007,32.563 L175.007,55.009 L182.017,55.009 C182.017,55.009 182.017,47.932 182.017,47.932 C182.017,47.402 182.147,46.991 182.408,46.695 C182.663,46.399 182.971,46.249 183.325,46.249 C183.721,46.249 184.055,46.405 184.315,46.727 C184.576,47.044 184.706,47.505 184.706,48.119 C184.706,48.119 184.706,55.009 184.706,55.009 L191.706,55.009 C191.706,55.009 191.706,47.366 191.706,47.366 C191.706,46.238 191.585,45.313 191.340,44.591 C191.096,43.869 190.705,43.298 190.163,42.871 C189.621,42.451 188.886,42.139 187.958,41.946 C187.958,41.946 192.304,32.563 192.304,32.563 L185.269,32.563 L182.017,41.105 L182.017,32.563 L175.007,32.563 L175.007,32.563 zM211.504,55.009 L204.494,55.009 L204.494,50.239 L201.373,50.239 L201.373,55.009 L194.364,55.009 C194.364,55.009 194.364,39.453 194.364,39.453 C194.364,38.253 194.567,37.182 194.978,36.247 C195.390,35.317 195.974,34.532 196.730,33.904 C197.485,33.275 198.392,32.802 199.450,32.480 C200.508,32.163 201.680,32.002 202.962,32.002 C204.714,32.002 206.230,32.288 207.512,32.854 C208.794,33.421 209.779,34.267 210.467,35.389 C211.161,36.512 211.504,37.863 211.504,39.453 C211.504,39.453 211.504,55.009 211.504,55.009 L211.504,55.009 zM201.373,40.326 L201.373,44.124 L204.494,44.124 C204.494,44.124 204.494,40.326 204.494,40.326 C204.494,39.837 204.349,39.458 204.062,39.193 C203.770,38.928 203.406,38.798 202.962,38.798 C202.535,38.798 202.160,38.928 201.847,39.193 C201.529,39.458 201.373,39.837 201.373,40.326 C201.373,40.326 201.373,40.326 201.373,40.326 z" fill="#FF7AA6" />
<path id="СЕТЬ-ЦВЕТОЧНЫХ-М" d="M213.002,19.565 C213.002,20.919 212.169,21.731 210.898,21.731 C210.898,21.731 208.816,21.731 208.816,21.731 L208.816,14.150 C208.816,14.150 210.794,14.150 210.794,14.150 C211.971,14.150 212.731,14.940 212.731,16.208 C212.731,16.944 212.440,17.540 211.992,17.832 C212.617,18.103 213.002,18.742 213.002,19.565 zM210.669,15.179 C210.669,15.179 209.867,15.179 209.867,15.179 L209.867,17.356 C209.867,17.356 210.700,17.356 210.700,17.356 C211.336,17.356 211.659,16.976 211.659,16.240 C211.659,15.525 211.346,15.179 210.669,15.179 zM210.721,18.385 C210.721,18.385 209.867,18.385 209.867,18.385 L209.867,20.702 C209.867,20.702 210.763,20.702 210.763,20.702 C211.534,20.702 211.929,20.334 211.929,19.565 C211.929,18.785 211.461,18.385 210.721,18.385 zM205.110,21.872 C203.714,21.872 202.881,20.907 202.881,19.327 C202.881,19.327 202.881,16.554 202.881,16.554 C202.881,14.973 203.714,14.009 205.110,14.009 C206.505,14.009 207.338,14.973 207.338,16.554 C207.338,16.554 207.338,19.327 207.338,19.327 C207.338,20.907 206.505,21.872 205.110,21.872 zM206.255,16.554 C206.255,15.601 205.860,15.081 205.110,15.081 C204.349,15.081 203.964,15.601 203.964,16.554 C203.964,16.554 203.964,19.327 203.964,19.327 C203.964,20.279 204.349,20.799 205.110,20.799 C205.860,20.799 206.255,20.279 206.255,19.327 C206.255,19.327 206.255,16.554 206.255,16.554 zM200.477,18.406 L198.415,18.406 L198.415,21.731 L197.363,21.731 L197.363,14.150 L198.415,14.150 L198.415,17.377 L200.477,17.377 L200.477,14.150 L201.529,14.150 L201.529,21.731 L200.477,21.731 L200.477,18.406 zM194.917,18.428 C194.917,17.854 194.959,16.836 195.011,16.208 C195.011,16.208 194.980,16.186 194.980,16.186 C194.844,16.576 194.636,17.161 194.459,17.583 C194.459,17.583 192.699,21.731 192.699,21.731 L191.637,21.731 L191.637,14.150 L192.668,14.150 C192.668,14.150 192.668,17.464 192.668,17.464 C192.668,18.005 192.626,18.991 192.553,19.651 C192.553,19.651 192.584,19.673 192.584,19.673 C192.720,19.305 192.907,18.774 193.105,18.330 C193.105,18.330 194.875,14.150 194.875,14.150 L195.948,14.150 L195.948,21.731 L194.917,21.731 C194.917,21.731 194.917,18.428 194.917,18.428 zM188.201,21.872 C186.806,21.872 185.984,20.843 185.921,19.565 C185.921,19.565 186.983,19.565 186.983,19.565 C187.025,20.236 187.410,20.821 188.191,20.821 C188.878,20.821 189.389,20.366 189.389,19.576 C189.389,18.752 188.857,18.320 188.087,18.320 C188.087,18.320 187.535,18.320 187.535,18.320 L187.535,17.344 C187.535,17.344 187.993,17.344 187.993,17.344 C188.753,17.344 189.201,16.976 189.201,16.154 C189.201,15.460 188.836,15.049 188.191,15.049 C187.431,15.049 187.129,15.569 187.087,16.327 C187.087,16.327 186.046,16.327 186.046,16.327 C186.119,14.940 186.837,13.999 188.191,13.999 C189.441,13.999 190.263,14.811 190.263,16.165 C190.263,16.966 189.972,17.497 189.191,17.800 C190.128,18.070 190.451,18.752 190.451,19.630 C190.451,21.037 189.482,21.872 188.201,21.872 zM183.933,20.204 L182.006,20.204 L181.673,21.731 L180.569,21.731 L182.402,14.150 L183.537,14.150 L185.370,21.731 L184.277,21.731 L183.933,20.204 zM183.256,17.150 C183.152,16.652 183.037,15.926 182.985,15.525 C182.985,15.525 182.954,15.525 182.954,15.525 C182.902,15.926 182.798,16.652 182.683,17.150 C182.683,17.150 182.236,19.186 182.236,19.186 L183.714,19.186 C183.714,19.186 183.256,17.150 183.256,17.150 zM178.633,21.731 L177.581,21.731 L177.581,14.150 L181.070,14.150 L181.070,15.190 L178.633,15.190 L178.633,21.731 zM175.083,20.204 L173.157,20.204 L172.823,21.731 L171.720,21.731 L173.553,14.150 L174.688,14.150 L176.521,21.731 L175.427,21.731 L175.083,20.204 zM174.406,17.150 C174.302,16.652 174.188,15.926 174.136,15.525 C174.136,15.525 174.104,15.525 174.104,15.525 C174.052,15.926 173.948,16.652 173.834,17.150 C173.834,17.150 173.386,19.186 173.386,19.186 L174.865,19.186 C174.865,19.186 174.406,17.150 174.406,17.150 zM169.763,18.774 C169.784,17.908 169.805,17.117 169.847,16.327 C169.847,16.327 169.805,16.305 169.805,16.305 C169.597,16.912 169.347,17.605 169.097,18.298 C169.097,18.298 168.462,20.020 168.462,20.020 L167.420,20.020 C167.420,20.020 166.785,18.298 166.785,18.298 C166.535,17.605 166.285,16.912 166.077,16.305 C166.077,16.305 166.035,16.327 166.035,16.327 C166.067,17.117 166.098,17.908 166.119,18.774 C166.119,18.774 166.119,21.731 166.119,21.731 L165.088,21.731 L165.088,14.150 L166.161,14.150 C166.161,14.150 167.389,17.225 167.389,17.225 C167.556,17.659 167.806,18.385 167.920,18.731 C167.920,18.731 167.962,18.731 167.962,18.731 C168.076,18.385 168.326,17.659 168.493,17.225 C168.493,17.225 169.722,14.150 169.722,14.150 L170.795,14.150 L170.795,21.731 L169.763,21.731 C169.763,21.731 169.763,18.774 169.763,18.774 zM160.705,21.731 L159.560,18.926 L158.404,21.731 L157.238,21.731 L158.977,17.800 L157.342,14.150 L158.497,14.150 L159.560,16.716 L160.611,14.150 L161.767,14.150 L160.133,17.800 L161.872,21.731 L160.705,21.731 zM155.396,14.150 L156.448,14.150 L156.448,21.731 L155.396,21.731 L155.396,14.150 zM152.324,21.731 C152.324,21.731 150.512,21.731 150.512,21.731 L150.512,14.150 L151.584,14.150 L151.584,17.182 C151.584,17.182 152.324,17.182 152.324,17.182 C153.771,17.182 154.532,18.081 154.532,19.457 C154.532,20.951 153.771,21.731 152.324,21.731 zM152.272,18.222 C152.272,18.222 151.584,18.222 151.584,18.222 L151.584,20.713 C151.584,20.713 152.272,20.713 152.272,20.713 C153.011,20.713 153.438,20.301 153.438,19.457 C153.438,18.633 153.011,18.222 152.272,18.222 zM147.899,18.406 L145.837,18.406 L145.837,21.731 L144.786,21.731 L144.786,14.150 L145.837,14.150 L145.837,17.377 L147.899,17.377 L147.899,14.150 L148.951,14.150 L148.951,21.731 L147.899,21.731 L147.899,18.406 zM142.371,18.947 C142.058,19.067 141.694,19.121 141.382,19.121 C140.059,19.121 139.236,18.244 139.236,16.706 C139.236,16.706 139.236,14.150 139.236,14.150 L140.288,14.150 C140.288,14.150 140.288,16.739 140.288,16.739 C140.288,17.659 140.725,18.092 141.496,18.092 C141.787,18.092 142.079,18.049 142.371,17.929 C142.371,17.929 142.371,14.150 142.371,14.150 L143.423,14.150 L143.423,21.752 L142.371,21.752 C142.371,21.752 142.371,18.947 142.371,18.947 zM135.874,21.872 C134.478,21.872 133.645,20.907 133.645,19.327 C133.645,19.327 133.645,16.554 133.645,16.554 C133.645,14.973 134.478,14.009 135.874,14.009 C137.269,14.009 138.102,14.973 138.102,16.554 C138.102,16.554 138.102,19.327 138.102,19.327 C138.102,20.907 137.269,21.872 135.874,21.872 zM137.019,16.554 C137.019,15.601 136.623,15.081 135.874,15.081 C135.114,15.081 134.728,15.601 134.728,16.554 C134.728,16.554 134.728,19.327 134.728,19.327 C134.728,20.279 135.114,20.799 135.874,20.799 C136.623,20.799 137.019,20.279 137.019,19.327 C137.019,19.327 137.019,16.554 137.019,16.554 zM131.199,21.731 L130.127,21.731 L130.127,15.190 L128.617,15.190 L128.617,14.150 L132.720,14.150 L132.720,15.190 L131.199,15.190 L131.199,21.731 zM124.483,14.150 L128.055,14.150 L128.055,15.179 L125.535,15.179 L125.535,17.377 L127.857,17.377 L127.857,18.385 L125.535,18.385 L125.535,20.702 L128.159,20.702 L128.159,21.731 L124.483,21.731 L124.483,14.150 zM121.360,21.731 C121.360,21.731 119.278,21.731 119.278,21.731 L119.278,14.150 C119.278,14.150 121.256,14.150 121.256,14.150 C122.433,14.150 123.193,14.940 123.193,16.208 C123.193,16.944 122.902,17.540 122.454,17.832 C123.078,18.103 123.464,18.742 123.464,19.565 C123.464,20.919 122.631,21.731 121.360,21.731 zM121.131,15.179 C121.131,15.179 120.329,15.179 120.329,15.179 L120.329,17.356 C120.329,17.356 121.163,17.356 121.163,17.356 C121.798,17.356 122.121,16.976 122.121,16.240 C122.121,15.525 121.808,15.179 121.131,15.179 zM121.184,18.385 C121.184,18.385 120.329,18.385 120.329,18.385 L120.329,20.702 C120.329,20.702 121.225,20.702 121.225,20.702 C121.995,20.702 122.391,20.334 122.391,19.565 C122.391,18.785 121.923,18.385 121.184,18.385 zM117.311,21.731 L113.551,21.731 L113.551,14.150 L114.603,14.150 L114.603,20.691 L116.624,20.691 L116.624,14.150 L117.675,14.150 L117.675,20.691 L118.342,20.691 L118.342,22.998 L117.311,22.998 L117.311,21.731 zM108.211,21.731 C108.211,21.731 106.264,21.731 106.264,21.731 L106.264,14.150 L107.315,14.150 L107.315,17.171 C107.315,17.171 108.211,17.171 108.211,17.171 C109.627,17.171 110.398,18.081 110.398,19.457 C110.398,20.951 109.627,21.731 108.211,21.731 zM108.158,18.211 C108.158,18.211 107.315,18.211 107.315,18.211 L107.315,20.723 C107.315,20.723 108.158,20.723 108.158,20.723 C108.877,20.723 109.315,20.312 109.315,19.457 C109.315,18.622 108.877,18.211 108.158,18.211 zM104.130,21.731 L103.057,21.731 L103.057,15.190 L101.547,15.190 L101.547,14.150 L105.650,14.150 L105.650,15.190 L104.130,15.190 L104.130,21.731 zM97.414,14.150 L100.986,14.150 L100.986,15.179 L98.466,15.179 L98.466,17.377 L100.788,17.377 L100.788,18.385 L98.466,18.385 L98.466,20.702 L101.090,20.702 L101.090,21.731 L97.414,21.731 L97.414,14.150 zM94.114,20.821 C94.822,20.821 95.196,20.409 95.270,19.543 C95.270,19.543 96.311,19.543 96.311,19.543 C96.238,21.037 95.457,21.861 94.114,21.861 C92.833,21.861 92.000,21.026 92.000,19.500 C92.000,19.500 92.000,16.381 92.000,16.381 C92.000,14.843 92.822,14.009 94.103,14.009 C95.426,14.009 96.207,14.832 96.269,16.338 C96.269,16.338 95.228,16.338 95.228,16.338 C95.166,15.450 94.791,15.049 94.093,15.049 C93.478,15.049 93.072,15.471 93.072,16.381 C93.072,16.381 93.072,19.500 93.072,19.500 C93.072,20.398 93.478,20.821 94.114,20.821 z" fill="#8E8E90" />
</svg>
