<svg version="1.1" xmlns="http://www.w3.org/2000/svg" xmlns:xlink="http://www.w3.org/1999/xlink" width="109" height="28" viewBox="0 0 109 28">
<path id="Фигура-706" d="M42.708,21.433 L46.651,21.433 L46.651,11.846 L48.768,11.846 L48.768,8.607 L40.591,8.607 L40.591,11.846 L42.708,11.846 L42.708,21.433 L42.708,21.433 zM53.930,21.433 C53.930,21.433 53.930,13.648 53.930,13.648 C53.930,12.687 54.265,12.206 54.937,12.206 C55.245,12.206 55.486,12.304 55.662,12.503 C55.835,12.702 55.923,12.942 55.923,13.224 C55.923,13.494 55.827,13.729 55.636,13.931 C55.442,14.135 55.210,14.237 54.937,14.237 C54.749,14.237 54.582,14.189 54.444,14.094 C54.444,14.094 55.166,18.153 55.166,18.153 C56.000,18.108 56.772,17.861 57.480,17.416 C58.187,16.971 58.751,16.380 59.168,15.643 C59.588,14.904 59.796,14.097 59.796,13.221 C59.796,12.375 59.585,11.573 59.162,10.810 C58.739,10.050 58.155,9.439 57.409,8.978 C56.664,8.518 55.841,8.287 54.937,8.287 C54.288,8.287 53.668,8.408 53.073,8.649 C52.477,8.892 51.948,9.249 51.487,9.721 C51.026,10.196 50.662,10.787 50.392,11.496 C50.122,12.206 49.986,13.013 49.986,13.913 C49.986,13.913 49.986,21.433 49.986,21.433 L53.930,21.433 L53.930,21.433 zM67.812,21.754 C69.016,21.754 70.128,21.451 71.150,20.848 C72.172,20.245 72.979,19.429 73.575,18.396 C74.172,17.366 74.471,16.238 74.471,15.017 C74.471,14.100 74.301,13.230 73.957,12.414 C73.613,11.597 73.135,10.876 72.521,10.255 C71.908,9.637 71.197,9.154 70.390,8.806 C69.579,8.459 68.722,8.287 67.812,8.287 C66.608,8.287 65.495,8.590 64.474,9.192 C63.451,9.795 62.641,10.611 62.045,11.644 C61.449,12.675 61.150,13.800 61.150,15.017 C61.150,16.238 61.449,17.366 62.045,18.396 C62.641,19.429 63.451,20.245 64.474,20.848 C65.495,21.451 66.608,21.754 67.812,21.754 C67.812,21.754 67.812,21.754 67.812,21.754 zM67.812,17.763 C67.445,17.763 67.096,17.692 66.766,17.550 C66.435,17.407 66.144,17.211 65.894,16.959 C65.645,16.706 65.448,16.413 65.311,16.077 C65.169,15.742 65.099,15.388 65.099,15.017 C65.099,14.521 65.219,14.064 65.463,13.643 C65.704,13.224 66.035,12.891 66.452,12.645 C66.873,12.402 67.325,12.277 67.812,12.277 C68.302,12.277 68.757,12.402 69.171,12.645 C69.588,12.891 69.917,13.224 70.158,13.643 C70.402,14.064 70.522,14.521 70.522,15.017 C70.522,15.510 70.402,15.971 70.158,16.392 C69.917,16.817 69.588,17.149 69.171,17.395 C68.757,17.639 68.302,17.763 67.812,17.763 C67.812,17.763 67.812,17.763 67.812,17.763 zM85.907,8.607 L81.958,8.607 C81.958,8.607 81.958,17.193 81.958,17.193 C81.958,17.464 81.864,17.674 81.673,17.832 C81.485,17.989 81.268,18.066 81.024,18.066 C80.813,18.066 80.631,17.986 80.470,17.820 C80.311,17.657 80.232,17.449 80.232,17.193 C80.232,17.193 80.232,8.607 80.232,8.607 L76.285,8.607 C76.285,8.607 76.285,17.888 76.285,17.888 C76.285,18.657 76.415,19.331 76.673,19.913 C76.932,20.498 77.325,20.949 77.854,21.270 C78.382,21.594 79.040,21.754 79.824,21.754 C80.378,21.754 80.840,21.632 81.206,21.392 C81.574,21.148 81.823,20.860 81.958,20.525 C81.958,20.525 81.958,21.433 81.958,21.433 L85.907,21.433 L85.907,8.607 L85.907,8.607 zM78.520,5.259 L78.520,7.221 L83.755,7.221 L83.755,5.259 L78.520,5.259 L78.520,5.259 zM87.595,8.607 L87.595,21.433 L91.545,21.433 C91.545,21.433 91.545,17.389 91.545,17.389 C91.545,17.087 91.618,16.852 91.765,16.683 C91.909,16.514 92.082,16.428 92.282,16.428 C92.505,16.428 92.693,16.517 92.840,16.701 C92.986,16.882 93.060,17.146 93.060,17.496 C93.060,17.496 93.060,21.433 93.060,21.433 L97.003,21.433 C97.003,21.433 97.003,17.066 97.003,17.066 C97.003,16.422 96.935,15.893 96.797,15.480 C96.659,15.068 96.439,14.741 96.134,14.497 C95.828,14.257 95.415,14.079 94.892,13.969 C94.892,13.969 97.341,8.607 97.341,8.607 L93.377,8.607 L91.545,13.488 L91.545,8.607 L87.595,8.607 L87.595,8.607 zM108.157,21.433 L104.208,21.433 L104.208,18.708 L102.449,18.708 L102.449,21.433 L98.500,21.433 C98.500,21.433 98.500,12.544 98.500,12.544 C98.500,11.858 98.615,11.247 98.847,10.712 C99.079,10.181 99.408,9.733 99.834,9.374 C100.259,9.014 100.770,8.744 101.366,8.560 C101.962,8.379 102.623,8.287 103.345,8.287 C104.332,8.287 105.186,8.450 105.908,8.774 C106.630,9.097 107.185,9.581 107.573,10.222 C107.964,10.864 108.157,11.636 108.157,12.544 C108.157,12.544 108.157,21.433 108.157,21.433 L108.157,21.433 zM102.449,13.043 L102.449,15.213 L104.208,15.213 C104.208,15.213 104.208,13.043 104.208,13.043 C104.208,12.764 104.126,12.547 103.965,12.396 C103.800,12.244 103.595,12.170 103.345,12.170 C103.104,12.170 102.893,12.244 102.717,12.396 C102.538,12.547 102.449,12.764 102.449,13.043 C102.449,13.043 102.449,13.043 102.449,13.043 z" fill="#FF7AA6" />
<path id="Фигура-706" d="M11.296,26.752 C3.834,23.101 8.977,12.564 0.048,13.186 C0.029,13.187 0.056,13.227 0.060,13.246 C0.041,13.244 0.016,13.241 -0.001,13.241 C1.464,18.820 1.079,27.097 11.296,26.752 z" fill="#B5BF47" />
<path id="Фигура-706" d="M15.375,27.622 C15.355,27.615 15.344,27.611 15.323,27.604 C15.305,27.611 15.291,27.615 15.275,27.622 C9.913,25.746 7.607,22.191 7.635,17.648 C7.607,13.446 9.582,8.475 12.913,3.434 C12.950,3.375 12.988,3.316 13.026,3.261 C13.028,3.256 13.028,3.256 13.031,3.251 C13.722,2.179 14.466,1.092 15.270,-0.000 C15.288,0.021 15.307,0.046 15.323,0.067 C15.342,0.046 15.358,0.021 15.376,-0.000 C15.919,0.738 16.436,1.474 16.928,2.204 C16.636,2.681 16.355,3.155 16.082,3.629 C16.081,3.630 16.081,3.633 16.079,3.635 C16.045,3.691 16.011,3.752 15.978,3.809 C12.998,8.850 11.230,13.821 11.255,18.025 C11.236,21.668 12.561,24.677 15.563,26.694 C15.653,26.911 15.748,27.131 15.848,27.352 C15.848,27.352 15.866,27.361 15.866,27.361 L15.885,27.407 C15.885,27.407 15.914,27.424 15.914,27.424 C15.738,27.491 15.559,27.558 15.375,27.622 C15.375,27.622 15.375,27.622 15.375,27.622 z" fill="#E04579" />
<path id="Фигура-706" d="M17.888,27.998 C18.053,27.934 18.213,27.867 18.371,27.799 C18.371,27.799 18.345,27.783 18.345,27.783 L18.328,27.738 L18.311,27.727 L17.973,26.894 L17.809,26.461 L17.659,26.031 L17.522,25.605 L17.400,25.181 L17.290,24.762 L17.195,24.345 L17.113,23.931 L17.045,23.520 L16.991,23.113 L16.951,22.709 L16.924,22.308 L16.912,21.912 L16.913,21.519 L16.929,21.130 L16.958,20.746 L17.002,20.366 L17.059,19.993 L17.131,19.624 L17.215,19.261 L17.313,18.905 L17.423,18.556 L17.547,18.213 L17.683,17.877 L17.831,17.549 L17.991,17.228 L18.162,16.915 L18.344,16.609 L18.537,16.312 L18.740,16.021 L18.953,15.739 L19.170,15.472 L19.378,15.226 L19.598,14.981 L19.825,14.743 L20.060,14.512 L20.302,14.286 L20.552,14.067 L20.808,13.854 L21.070,13.648 L21.339,13.447 L21.615,13.252 L21.897,13.063 L22.185,12.880 L22.479,12.702 L22.779,12.529 L23.085,12.363 L23.396,12.202 L23.713,12.046 C23.713,12.046 23.746,12.031 23.746,12.031 C22.938,9.391 21.658,6.609 20.000,3.809 C19.968,3.750 19.934,3.694 19.899,3.635 C19.897,3.633 19.897,3.630 19.896,3.628 C19.277,2.553 18.609,1.468 17.890,0.376 C17.874,0.397 17.858,0.423 17.843,0.445 C17.829,0.423 17.813,0.397 17.797,0.376 C17.077,1.468 16.410,2.553 15.791,3.628 C15.789,3.630 15.789,3.633 15.788,3.635 C15.753,3.691 15.719,3.752 15.687,3.809 C12.706,8.850 10.938,13.821 10.963,18.025 C10.940,22.565 13.003,26.120 17.799,27.998 C17.815,27.991 17.827,27.987 17.843,27.981 C17.859,27.987 17.872,27.991 17.888,27.998 z" fill="#FF7AA6" />
<path id="Фигура-706" d="M19.319,27.138 C29.534,27.484 28.536,18.590 30.001,13.012 C29.980,13.012 29.960,13.015 29.945,13.015 C29.945,12.996 29.971,12.958 29.952,12.956 C15.597,12.034 17.520,25.468 19.319,27.138 C19.319,27.138 19.319,27.138 19.319,27.138 z" fill="#B5BF47" />
</svg>
