<svg version="1.1" xmlns="http://www.w3.org/2000/svg" xmlns:xlink="http://www.w3.org/1999/xlink" width="16" height="18" viewBox="0 0 16 18">
<path id="Forma-1" d="M8.615,2.422 C8.615,2.422 8.615,-0.001 8.615,-0.001 L3.692,3.600 L8.615,7.200 C8.615,7.200 8.615,4.832 8.615,4.832 C11.384,5.130 13.538,7.419 13.538,10.200 C13.538,13.181 11.057,15.599 8.000,15.599 C4.941,15.599 2.461,13.181 2.461,10.200 C2.461,9.997 2.473,9.796 2.494,9.599 C2.494,9.599 0.023,9.599 0.023,9.599 C0.008,9.797 -0.000,9.998 -0.000,10.200 C-0.000,14.507 3.582,18.000 8.000,18.000 C12.418,18.000 16.000,14.507 16.000,10.200 C16.000,6.093 12.745,2.728 8.615,2.422 z" fill="#F12D4E" />
</svg>
