<svg version="1.1" xmlns="http://www.w3.org/2000/svg" xmlns:xlink="http://www.w3.org/1999/xlink" width="46" height="46" viewBox="0 0 46 46">
<g id="Эллипс-627" >
<path id="Эллипс-627-fill" d="M23.000,-0.000 C35.703,-0.000 46.000,10.297 46.000,23.000 C46.000,35.703 35.703,46.000 23.000,46.000 C10.297,46.000 -0.000,35.703 -0.000,23.000 C-0.000,10.297 10.297,-0.000 23.000,-0.000 z" fill="#B5BF47" fill-opacity="0.980" />
<path id="Эллипс-627-stroke" d="M23.000,-0.000 C35.703,-0.000 46.000,10.297 46.000,23.000 C46.000,35.703 35.703,46.000 23.000,46.000 C10.297,46.000 -0.000,35.703 -0.000,23.000 C-0.000,10.297 10.297,-0.000 23.000,-0.000 z" fill="none" stroke="#FFFFFF" stroke-width="0" />
</g>
<path id="Forma-1" d="M16.276,23.579 C16.276,23.579 21.621,28.772 21.621,28.772 C21.947,29.089 22.476,29.089 22.802,28.772 C23.128,28.455 23.128,27.942 22.802,27.625 C22.802,27.625 18.883,23.817 18.883,23.817 C18.883,23.817 29.165,23.817 29.165,23.817 C29.626,23.817 30.000,23.454 30.000,23.005 C30.000,22.558 29.626,22.194 29.165,22.194 C29.165,22.194 18.883,22.194 18.883,22.194 C18.883,22.194 22.802,18.386 22.802,18.386 C23.128,18.069 23.128,17.555 22.802,17.238 C22.638,17.080 22.425,17.000 22.211,17.000 C21.997,17.000 21.784,17.080 21.621,17.238 C21.621,17.238 16.276,22.431 16.276,22.431 C15.950,22.749 15.950,23.262 16.276,23.579 z" fill="#FFFFFF" />
</svg>
