<svg version="1.1" xmlns="http://www.w3.org/2000/svg" xmlns:xlink="http://www.w3.org/1999/xlink" width="46" height="46" viewBox="0 0 46 46">
<g id="Эллипс-627" >
<path id="Эллипс-627-fill" d="M23.000,-0.000 C35.703,-0.000 46.000,10.297 46.000,23.000 C46.000,35.703 35.703,46.000 23.000,46.000 C10.297,46.000 -0.000,35.703 -0.000,23.000 C-0.000,10.297 10.297,-0.000 23.000,-0.000 z" fill="#B5BF47" fill-opacity="0.980" />
<path id="Эллипс-627-stroke" d="M23.000,-0.000 C35.703,-0.000 46.000,10.297 46.000,23.000 C46.000,35.703 35.703,46.000 23.000,46.000 C10.297,46.000 -0.000,35.703 -0.000,23.000 C-0.000,10.297 10.297,-0.000 23.000,-0.000 z" fill="none" stroke="#FFFFFF" stroke-width="0" />
</g>
<path id="Forma-1" d="M29.754,22.438 C29.754,22.438 24.398,17.258 24.398,17.258 C24.071,16.942 23.541,16.942 23.214,17.258 C22.887,17.575 22.887,18.086 23.214,18.403 C23.214,18.403 27.142,22.201 27.142,22.201 C27.142,22.201 16.837,22.201 16.837,22.201 C16.375,22.201 16.000,22.563 16.000,23.010 C16.000,23.457 16.375,23.819 16.837,23.819 C16.837,23.819 27.142,23.819 27.142,23.819 C27.142,23.819 23.214,27.618 23.214,27.618 C22.888,27.934 22.888,28.446 23.214,28.762 C23.378,28.921 23.592,29.000 23.806,29.000 C24.021,29.000 24.235,28.921 24.398,28.762 C24.398,28.762 29.754,23.583 29.754,23.583 C30.081,23.266 30.081,22.754 29.754,22.438 z" fill="#FFFFFF" />
</svg>
