<svg version="1.1" xmlns="http://www.w3.org/2000/svg" xmlns:xlink="http://www.w3.org/1999/xlink" width="46" height="46" viewBox="0 0 46 46">
<g id="Эллипс-627"  opacity="0.400">
<path id="Эллипс-627-stroke" d="M23.000,0.950 C35.178,0.950 45.050,10.822 45.050,23.000 C45.050,35.178 35.178,45.050 23.000,45.050 C10.822,45.050 0.950,35.178 0.950,23.000 C0.950,10.822 10.822,0.950 23.000,0.950 z" fill="none" stroke="#FFFFFF" stroke-width="2" />
</g>
<path id="Forma-1" d="M29.754,22.421 C29.754,22.421 24.398,17.228 24.398,17.228 C24.071,16.911 23.541,16.911 23.214,17.228 C22.887,17.545 22.887,18.058 23.214,18.375 C23.214,18.375 27.142,22.183 27.142,22.183 C27.142,22.183 16.837,22.183 16.837,22.183 C16.375,22.183 16.000,22.546 16.000,22.995 C16.000,23.442 16.375,23.806 16.837,23.806 C16.837,23.806 27.142,23.806 27.142,23.806 C27.142,23.806 23.214,27.614 23.214,27.614 C22.888,27.931 22.888,28.445 23.214,28.762 C23.378,28.920 23.592,29.000 23.806,29.000 C24.021,29.000 24.235,28.920 24.398,28.762 C24.398,28.762 29.754,23.569 29.754,23.569 C30.081,23.251 30.081,22.738 29.754,22.421 z" fill="#FFFFFF" />
</svg>
