<svg version="1.1" xmlns="http://www.w3.org/2000/svg" xmlns:xlink="http://www.w3.org/1999/xlink" width="50" height="50" viewBox="0 0 50 50">
<path id="Эллипс-3" d="M25.000,0.000 C38.807,0.000 50.000,11.193 50.000,25.000 C50.000,38.807 38.807,50.000 25.000,50.000 C11.193,50.000 0.000,38.807 0.000,25.000 C0.000,11.193 11.193,0.000 25.000,0.000 z" fill="#F12D4E" />
<path id="Фигура-7" d="M21.300,25.705 C21.300,25.705 27.290,31.715 27.290,31.715 C27.681,32.095 28.301,32.095 28.692,31.715 C29.078,31.326 29.078,30.696 28.692,30.308 C28.692,30.308 23.400,25.006 23.400,25.006 C23.400,25.006 28.692,19.695 28.692,19.695 C29.077,19.314 29.081,18.692 28.701,18.306 C28.698,18.303 28.695,18.301 28.692,18.297 C28.304,17.911 27.678,17.911 27.290,18.297 C27.290,18.297 21.300,24.308 21.300,24.308 C20.915,24.689 20.912,25.311 21.292,25.697 C21.295,25.699 21.297,25.702 21.300,25.705 z" fill="#FFFFFF" />
</svg>
