<svg version="1.1" xmlns="http://www.w3.org/2000/svg" xmlns:xlink="http://www.w3.org/1999/xlink" width="50" height="50" viewBox="0 0 50 50">
<path id="Эллипс-3" d="M25.000,0.000 C38.807,0.000 50.000,11.193 50.000,25.000 C50.000,38.807 38.807,50.000 25.000,50.000 C11.193,50.000 0.000,38.807 0.000,25.000 C0.000,11.193 11.193,0.000 25.000,0.000 z" fill="#F12D4E" />
<path id="Фигура-7" d="M28.700,25.705 C28.700,25.705 22.710,31.715 22.710,31.715 C22.319,32.095 21.699,32.095 21.308,31.715 C20.922,31.326 20.922,30.696 21.308,30.308 C21.308,30.308 26.600,25.006 26.600,25.006 C26.600,25.006 21.308,19.695 21.308,19.695 C20.923,19.314 20.919,18.692 21.299,18.306 C21.302,18.303 21.305,18.301 21.308,18.297 C21.696,17.911 22.322,17.911 22.710,18.297 C22.710,18.297 28.700,24.308 28.700,24.308 C29.085,24.689 29.088,25.311 28.708,25.697 C28.705,25.699 28.703,25.702 28.700,25.705 z" fill="#FFFFFF" />
</svg>
