<svg version="1.1" xmlns="http://www.w3.org/2000/svg" xmlns:xlink="http://www.w3.org/1999/xlink" width="94" height="94" viewBox="0 0 94 94">
<path id="Forma-1" d="M47.000,94.000 C21.084,94.000 -0.000,72.915 -0.000,47.000 C-0.000,21.084 21.084,-0.000 47.000,-0.000 C48.957,-0.000 50.543,1.586 50.543,3.542 C50.543,5.499 48.957,7.085 47.000,7.085 C24.991,7.085 7.085,24.991 7.085,47.000 C7.085,69.010 24.991,86.915 47.000,86.915 C69.010,86.915 86.914,69.010 86.914,47.000 C86.914,45.043 88.500,43.457 90.457,43.457 C92.414,43.457 94.000,45.043 94.000,47.000 C94.000,72.915 72.915,94.000 47.000,94.000 zM46.195,62.853 C45.531,63.515 44.630,63.887 43.693,63.887 C43.669,63.887 43.644,63.887 43.618,63.885 C42.654,63.865 41.740,63.453 41.087,62.743 C41.087,62.743 23.255,43.378 23.255,43.378 C21.930,41.938 22.023,39.697 23.462,38.372 C24.903,37.047 27.143,37.140 28.468,38.579 C28.468,38.579 43.802,55.233 43.802,55.233 C43.802,55.233 86.303,12.845 86.303,12.845 C87.685,11.463 89.929,11.465 91.312,12.850 C92.694,14.236 92.691,16.479 91.305,17.861 C91.305,17.861 46.195,62.853 46.195,62.853 z" fill="#8E78D7" />
</svg>
