<svg version="1.1" xmlns="http://www.w3.org/2000/svg" xmlns:xlink="http://www.w3.org/1999/xlink" width="70" height="70" viewBox="0 0 70 70">
<g id="Эллипс-2" >
<path id="Эллипс-2-stroke" d="M35.000,0.950 C53.805,0.950 69.050,16.195 69.050,35.000 C69.050,53.805 53.805,69.050 35.000,69.050 C16.195,69.050 0.950,53.805 0.950,35.000 C0.950,16.195 16.195,0.950 35.000,0.950 z" fill="none" stroke="#FFFFFF" stroke-width="2" />
</g>
<path id="Forma-1" d="M48.989,23.816 C48.989,23.816 46.817,48.392 46.817,48.392 C46.686,49.876 45.424,50.998 43.947,50.998 C43.863,50.998 43.779,50.995 43.694,50.988 C43.694,50.988 23.633,49.250 23.633,49.250 C22.049,49.112 20.874,47.725 21.012,46.156 C21.012,46.156 23.183,21.581 23.183,21.581 C23.250,20.823 23.612,20.135 24.203,19.645 C24.795,19.153 25.540,18.919 26.307,18.986 C26.307,18.986 26.306,18.986 26.306,18.986 C26.306,18.986 46.368,20.724 46.368,20.724 C47.951,20.860 49.127,22.248 48.989,23.816 zM46.190,22.733 C46.190,22.733 26.129,20.995 26.129,20.995 C26.129,20.995 26.079,20.992 26.055,20.992 C25.858,20.992 25.668,21.061 25.513,21.189 C25.339,21.334 25.232,21.536 25.213,21.757 C25.213,21.757 23.041,46.332 23.041,46.332 C23.001,46.792 23.346,47.199 23.810,47.240 C23.810,47.240 43.872,48.978 43.872,48.978 C44.336,49.019 44.747,48.676 44.788,48.216 C44.788,48.216 46.959,23.641 46.959,23.641 C47.000,23.181 46.655,22.773 46.190,22.733 zM35.228,33.993 C35.228,33.993 34.949,33.969 34.949,33.969 C34.390,33.920 33.895,34.332 33.846,34.887 C33.797,35.442 34.212,35.931 34.772,35.979 C34.772,35.979 35.051,36.003 35.051,36.003 C35.081,36.006 35.111,36.008 35.141,36.008 C35.663,36.008 36.108,35.611 36.154,35.086 C36.203,34.531 35.788,34.042 35.228,33.993 zM43.343,35.709 C43.343,35.709 43.343,35.709 43.343,35.709 C43.236,36.916 42.392,37.889 41.290,38.228 C41.407,38.591 41.451,38.977 41.416,39.369 C41.348,40.142 40.981,40.842 40.383,41.339 C39.785,41.835 39.025,42.072 38.244,42.005 C37.849,41.971 37.473,41.860 37.132,41.684 C36.957,42.022 36.712,42.326 36.408,42.578 C35.874,43.022 35.215,43.259 34.529,43.259 C34.443,43.259 34.357,43.255 34.270,43.248 C33.051,43.142 32.069,42.306 31.726,41.215 C30.626,41.563 29.372,41.245 28.585,40.317 C28.083,39.724 27.844,38.972 27.913,38.198 C27.947,37.807 28.058,37.435 28.237,37.098 C27.896,36.923 27.589,36.681 27.334,36.380 C26.832,35.787 26.592,35.039 26.657,34.271 C26.658,34.269 26.658,34.266 26.658,34.264 C26.726,33.493 27.094,32.794 27.695,32.295 C27.999,32.043 28.344,31.857 28.710,31.744 C28.594,31.381 28.550,30.996 28.584,30.605 C28.653,29.831 29.019,29.131 29.618,28.634 C29.621,28.631 29.625,28.628 29.628,28.625 C30.225,28.134 30.980,27.901 31.757,27.968 C32.152,28.003 32.528,28.112 32.868,28.289 C33.044,27.951 33.289,27.648 33.592,27.395 C34.191,26.897 34.948,26.660 35.722,26.724 C35.725,26.725 35.728,26.725 35.730,26.725 C36.950,26.831 37.931,27.666 38.274,28.758 C39.374,28.410 40.628,28.728 41.415,29.656 C42.202,30.585 42.300,31.863 41.763,32.875 C42.789,33.399 43.449,34.501 43.343,35.709 zM40.501,34.575 C40.501,34.575 39.676,34.503 39.676,34.503 C39.266,34.468 38.918,34.191 38.794,33.802 C38.670,33.413 38.795,32.988 39.110,32.726 C39.110,32.726 39.744,32.199 39.744,32.199 C40.122,31.885 40.171,31.326 39.855,30.953 C39.538,30.579 38.973,30.530 38.596,30.844 C38.596,30.844 37.962,31.370 37.962,31.370 C37.647,31.632 37.203,31.680 36.837,31.492 C36.471,31.304 36.257,30.917 36.292,30.510 C36.292,30.510 36.365,29.694 36.365,29.694 C36.407,29.209 36.046,28.780 35.557,28.735 C35.555,28.735 35.554,28.735 35.553,28.735 C35.318,28.715 35.086,28.788 34.902,28.940 C34.718,29.093 34.606,29.306 34.585,29.539 C34.585,29.539 34.513,30.356 34.513,30.356 C34.477,30.762 34.197,31.107 33.804,31.230 C33.411,31.353 32.982,31.228 32.717,30.917 C32.717,30.917 32.185,30.288 32.185,30.288 C32.033,30.109 31.818,29.999 31.579,29.977 C31.340,29.957 31.108,30.029 30.927,30.179 C30.925,30.181 30.923,30.182 30.922,30.184 C30.744,30.335 30.634,30.546 30.613,30.780 C30.592,31.017 30.665,31.246 30.816,31.425 C30.816,31.425 31.349,32.054 31.349,32.054 C31.613,32.366 31.662,32.805 31.472,33.168 C31.282,33.529 30.892,33.742 30.480,33.707 C30.480,33.707 29.655,33.636 29.655,33.636 C29.420,33.615 29.189,33.688 29.004,33.841 C28.822,33.992 28.709,34.203 28.688,34.435 C28.688,34.437 28.688,34.438 28.688,34.440 C28.667,34.673 28.740,34.902 28.895,35.084 C29.049,35.266 29.264,35.377 29.500,35.398 C29.500,35.398 30.324,35.469 30.324,35.469 C30.734,35.504 31.083,35.782 31.207,36.171 C31.330,36.560 31.205,36.985 30.890,37.247 C30.890,37.247 30.255,37.774 30.255,37.774 C30.074,37.924 29.963,38.138 29.942,38.375 C29.921,38.611 29.994,38.841 30.146,39.020 C30.462,39.394 31.027,39.443 31.404,39.129 C31.404,39.129 32.038,38.603 32.038,38.603 C32.226,38.446 32.458,38.367 32.693,38.367 C32.854,38.367 33.015,38.404 33.163,38.480 C33.528,38.668 33.744,39.056 33.708,39.463 C33.708,39.463 33.636,40.280 33.636,40.280 C33.593,40.765 33.957,41.195 34.448,41.238 C34.684,41.259 34.914,41.186 35.098,41.033 C35.282,40.880 35.395,40.668 35.416,40.434 C35.416,40.434 35.488,39.617 35.488,39.617 C35.524,39.211 35.803,38.866 36.196,38.743 C36.589,38.620 37.018,38.744 37.283,39.056 C37.283,39.056 37.815,39.684 37.815,39.684 C37.967,39.864 38.182,39.974 38.422,39.996 C38.660,40.016 38.892,39.944 39.073,39.794 C39.255,39.643 39.366,39.430 39.387,39.193 C39.407,38.956 39.335,38.727 39.183,38.547 C39.183,38.547 38.651,37.920 38.651,37.920 C38.386,37.608 38.338,37.168 38.528,36.805 C38.718,36.444 39.110,36.231 39.521,36.266 C39.521,36.266 40.345,36.338 40.345,36.338 C40.836,36.381 41.270,36.019 41.313,35.534 C41.355,35.047 40.992,34.617 40.501,34.575 z" fill="#FFFFFF" />
</svg>
