<svg version="1.1" xmlns="http://www.w3.org/2000/svg" xmlns:xlink="http://www.w3.org/1999/xlink" width="70" height="70" viewBox="0 0 70 70">
<g id="Эллипс-2" >
<path id="Эллипс-2-stroke" d="M35.000,0.950 C53.805,0.950 69.050,16.195 69.050,35.000 C69.050,53.805 53.805,69.050 35.000,69.050 C16.195,69.050 0.950,53.805 0.950,35.000 C0.950,16.195 16.195,0.950 35.000,0.950 z" fill="none" stroke="#FFFFFF" stroke-width="2" />
</g>
<path id="Forma-1" d="M46.577,31.618 C47.161,29.974 47.085,28.194 46.363,26.607 C45.384,24.454 43.400,23.101 41.247,22.863 C41.674,20.718 41.030,18.483 39.503,16.918 C38.296,15.681 36.690,14.999 34.983,14.999 C33.275,14.999 31.670,15.681 30.462,16.918 C28.936,18.482 28.292,20.715 28.717,22.859 C28.209,22.916 27.703,23.036 27.209,23.219 C25.605,23.818 24.324,25.021 23.602,26.607 C22.880,28.194 22.804,29.974 23.388,31.618 C23.554,32.084 24.318,34.223 24.688,34.828 C24.688,34.828 34.260,54.540 34.260,54.540 C34.397,54.821 34.677,54.999 34.983,54.999 C35.289,54.999 35.569,54.821 35.705,54.540 C35.705,54.540 45.277,34.828 45.277,34.828 C45.647,34.223 46.411,32.084 46.577,31.618 zM36.013,36.515 C36.013,36.515 35.917,37.435 35.917,37.435 C35.874,37.437 35.832,37.441 35.789,37.443 C35.789,37.443 35.789,33.732 35.789,33.732 C36.485,34.537 37.369,35.156 38.382,35.535 C38.532,35.590 38.684,35.639 38.836,35.683 C37.701,35.814 36.875,35.777 36.856,35.777 C36.428,35.754 36.059,36.079 36.013,36.515 zM40.880,30.364 C40.880,30.364 40.880,30.364 40.880,30.364 C40.667,30.465 40.429,30.475 40.208,30.394 C39.987,30.311 39.812,30.146 39.712,29.928 C39.613,29.709 39.603,29.465 39.683,29.239 C39.763,29.013 39.924,28.832 40.137,28.731 C40.257,28.673 40.384,28.646 40.507,28.646 C40.838,28.646 41.156,28.839 41.305,29.166 C41.510,29.616 41.319,30.153 40.880,30.364 zM42.767,28.467 C42.187,27.191 40.701,26.637 39.455,27.232 C38.992,27.453 38.615,27.806 38.362,28.249 C38.062,26.905 38.706,25.479 39.973,24.874 C40.679,24.535 41.472,24.500 42.204,24.773 C42.936,25.046 43.521,25.596 43.850,26.320 C44.179,27.043 44.214,27.856 43.947,28.606 C43.752,29.157 43.411,29.625 42.966,29.969 C43.047,29.476 42.989,28.954 42.767,28.467 zM37.099,29.546 C37.867,31.234 39.505,32.227 41.213,32.227 C41.853,32.227 42.503,32.088 43.121,31.793 C44.125,31.312 44.907,30.491 45.349,29.460 C45.340,29.997 45.244,30.534 45.061,31.052 C44.624,32.282 43.746,33.264 42.589,33.816 C41.432,34.369 40.134,34.428 38.934,33.980 C37.734,33.533 36.777,32.632 36.237,31.447 C35.698,30.261 35.641,28.931 36.078,27.701 C36.262,27.180 36.527,26.705 36.858,26.286 C36.561,27.331 36.617,28.485 37.099,29.546 zM33.728,31.447 C33.188,32.632 32.231,33.533 31.031,33.980 C29.831,34.428 28.533,34.369 27.376,33.816 C26.219,33.264 25.341,32.282 24.905,31.052 C24.720,30.534 24.625,29.997 24.616,29.460 C25.059,30.490 25.840,31.312 26.844,31.793 C27.462,32.088 28.112,32.227 28.752,32.227 C30.460,32.227 32.098,31.234 32.866,29.546 C33.334,28.516 33.418,27.372 33.110,26.292 C33.440,26.708 33.703,27.182 33.887,27.701 C34.324,28.931 34.268,30.261 33.728,31.447 zM30.253,29.928 C30.253,29.928 30.253,29.928 30.253,29.928 C30.154,30.146 29.978,30.311 29.757,30.394 C29.537,30.475 29.298,30.465 29.085,30.364 C28.873,30.261 28.711,30.081 28.631,29.855 C28.550,29.629 28.561,29.385 28.660,29.166 C28.759,28.948 28.935,28.783 29.156,28.700 C29.254,28.664 29.356,28.646 29.457,28.646 C29.584,28.646 29.710,28.674 29.828,28.730 C30.041,28.832 30.202,29.012 30.282,29.239 C30.363,29.465 30.352,29.709 30.253,29.928 zM31.501,26.561 C31.696,27.111 31.729,27.693 31.604,28.250 C31.350,27.807 30.973,27.453 30.510,27.232 C29.907,26.943 29.230,26.913 28.604,27.146 C27.979,27.380 27.479,27.849 27.198,28.467 C26.981,28.942 26.914,29.461 26.998,29.968 C26.553,29.624 26.213,29.156 26.017,28.606 C25.751,27.856 25.786,27.043 26.115,26.320 C26.444,25.596 27.029,25.046 27.761,24.773 C28.087,24.652 28.425,24.591 28.761,24.591 C29.181,24.591 29.600,24.686 29.992,24.874 C30.698,25.211 31.234,25.810 31.501,26.561 zM29.392,35.933 C29.902,35.933 30.412,35.868 30.915,35.741 C30.915,35.741 31.175,37.019 31.175,37.019 C30.538,36.864 29.928,36.668 29.356,36.434 C28.882,36.239 28.443,36.021 28.045,35.784 C28.489,35.883 28.940,35.933 29.392,35.933 zM32.887,37.332 C32.887,37.332 32.441,35.140 32.441,35.140 C33.099,34.777 33.684,34.300 34.176,33.732 C34.176,33.732 34.176,37.443 34.176,37.443 C33.740,37.423 33.310,37.385 32.887,37.332 zM35.604,22.369 C35.261,22.720 34.704,22.720 34.361,22.369 C34.195,22.199 34.104,21.973 34.104,21.732 C34.104,21.492 34.195,21.266 34.361,21.096 C34.527,20.925 34.748,20.833 34.982,20.833 C35.217,20.833 35.438,20.925 35.604,21.096 C35.770,21.266 35.861,21.492 35.861,21.732 C35.861,21.973 35.770,22.199 35.604,22.369 zM37.433,21.266 C37.343,20.762 37.107,20.297 36.745,19.926 C36.274,19.444 35.648,19.178 34.982,19.178 C34.317,19.178 33.691,19.444 33.220,19.926 C32.850,20.306 32.621,20.775 32.533,21.267 C31.802,20.109 31.931,18.542 32.919,17.528 C33.488,16.946 34.236,16.654 34.982,16.654 C35.730,16.654 36.477,16.946 37.046,17.528 C37.597,18.093 37.900,18.844 37.900,19.643 C37.900,20.228 37.737,20.787 37.433,21.266 zM30.465,19.953 C30.535,21.037 30.972,22.100 31.779,22.927 C32.634,23.804 33.772,24.287 34.982,24.287 C36.193,24.287 37.331,23.804 38.187,22.927 C38.969,22.125 39.429,21.080 39.502,19.958 C39.816,20.893 39.852,21.920 39.577,22.905 C38.999,22.998 38.423,23.172 37.867,23.438 C36.629,24.029 35.632,24.989 34.982,26.190 C34.334,24.989 33.336,24.029 32.098,23.438 C31.547,23.175 30.971,22.997 30.387,22.902 C30.112,21.916 30.150,20.889 30.465,19.953 zM34.474,51.268 C34.474,51.268 27.808,37.540 27.808,37.540 C29.745,38.539 32.260,39.115 34.983,39.115 C35.237,39.115 35.491,39.109 35.743,39.099 C35.743,39.099 34.474,51.268 34.474,51.268 zM36.262,49.680 C36.262,49.680 37.540,37.433 37.540,37.433 C38.641,37.408 40.747,37.238 42.713,36.396 C42.713,36.396 36.262,49.680 36.262,49.680 z" fill="#FFFFFF" />
</svg>
