<svg version="1.1" xmlns="http://www.w3.org/2000/svg" xmlns:xlink="http://www.w3.org/1999/xlink" width="70" height="70" viewBox="0 0 70 70">
<g id="Эллипс-2" >
<path id="Эллипс-2-stroke" d="M35.000,0.950 C53.805,0.950 69.050,16.195 69.050,35.000 C69.050,53.805 53.805,69.050 35.000,69.050 C16.195,69.050 0.950,53.805 0.950,35.000 C0.950,16.195 16.195,0.950 35.000,0.950 z" fill="none" stroke="#FFFFFF" stroke-width="2" />
</g>
<path id="Forma-1" d="M50.928,43.762 C50.928,43.762 47.801,43.762 47.801,43.762 C47.309,45.620 45.657,46.998 43.678,46.998 C41.700,46.998 40.047,45.620 39.556,43.762 C39.556,43.762 33.158,43.762 33.158,43.762 C32.666,45.620 31.013,46.998 29.035,46.998 C27.057,46.998 25.405,45.620 24.913,43.762 C24.913,43.762 22.107,43.762 22.107,43.762 C21.515,43.762 21.035,43.274 21.035,42.671 C21.035,42.069 21.515,41.581 22.107,41.581 C22.107,41.581 24.891,41.581 24.891,41.581 C25.357,39.685 27.031,38.272 29.035,38.272 C31.040,38.272 32.714,39.685 33.180,41.581 C33.180,41.581 39.533,41.581 39.533,41.581 C40.000,39.685 41.674,38.272 43.678,38.272 C45.682,38.272 47.356,39.685 47.823,41.580 C47.823,41.580 49.857,41.580 49.857,41.580 L49.857,35.954 L48.296,33.908 C48.296,33.908 39.964,33.908 39.964,33.908 C39.372,33.908 38.892,33.419 38.892,32.817 C38.892,32.817 38.892,25.180 38.892,25.180 C38.892,25.180 22.107,25.180 22.107,25.180 C21.515,25.180 21.035,24.692 21.035,24.090 C21.035,23.487 21.515,22.999 22.107,22.999 C22.107,22.999 39.964,22.999 39.964,22.999 C40.556,22.999 41.035,23.487 41.035,24.090 C41.035,24.090 41.035,25.180 41.035,25.180 C41.035,25.180 45.607,25.180 45.607,25.180 C46.012,25.180 46.382,25.413 46.564,25.781 C46.564,25.781 49.779,32.290 49.779,32.290 L49.777,32.291 C49.777,32.291 51.775,34.912 51.775,34.912 C51.920,35.103 52.000,35.338 52.000,35.580 C52.000,35.580 52.000,42.671 52.000,42.671 C52.000,43.274 51.520,43.762 50.928,43.762 zM29.035,40.453 C27.853,40.453 26.892,41.431 26.892,42.635 C26.892,43.838 27.853,44.817 29.035,44.817 C30.217,44.817 31.178,43.838 31.178,42.635 C31.178,41.431 30.216,40.453 29.035,40.453 zM43.678,40.453 C42.496,40.453 41.535,41.431 41.535,42.635 C41.535,43.838 42.496,44.817 43.678,44.817 C44.860,44.817 45.821,43.838 45.821,42.635 C45.821,41.431 44.860,40.453 43.678,40.453 zM44.946,27.362 L41.035,27.362 L41.035,31.726 L47.100,31.726 L44.946,27.362 zM31.035,28.562 C31.035,29.164 30.556,29.653 29.964,29.653 C29.964,29.653 20.821,29.653 20.821,29.653 C20.229,29.653 19.750,29.164 19.750,28.562 C19.750,27.960 20.229,27.472 20.821,27.472 C20.821,27.472 29.964,27.472 29.964,27.472 C30.556,27.472 31.035,27.960 31.035,28.562 zM29.285,32.853 C29.285,33.455 28.806,33.944 28.214,33.944 C28.214,33.944 19.071,33.944 19.071,33.944 C18.479,33.944 17.999,33.455 17.999,32.853 C17.999,32.251 18.479,31.762 19.071,31.762 C19.071,31.762 28.214,31.762 28.214,31.762 C28.806,31.762 29.285,32.251 29.285,32.853 zM20.821,36.053 C20.821,36.053 25.750,36.053 25.750,36.053 C26.341,36.053 26.821,36.542 26.821,37.144 C26.821,37.747 26.341,38.235 25.749,38.235 C25.749,38.235 20.821,38.235 20.821,38.235 C20.229,38.235 19.750,37.747 19.750,37.144 C19.750,36.542 20.229,36.053 20.821,36.053 z" fill="#FFFFFF" />
</svg>
