<svg version="1.1" xmlns="http://www.w3.org/2000/svg" xmlns:xlink="http://www.w3.org/1999/xlink" width="34" height="34" viewBox="0 0 34 34">
<path id="Эллипс-653" d="M17.000,0.000 C26.389,0.000 34.000,7.611 34.000,17.000 C34.000,26.389 26.389,34.000 17.000,34.000 C7.611,34.000 0.000,26.389 0.000,17.000 C0.000,7.611 7.611,0.000 17.000,0.000 z" fill="#ADC3E3" />
<path id="Forma-1" d="M25.903,21.032 C25.881,20.986 25.861,20.948 25.842,20.918 C25.530,20.370 24.933,19.697 24.052,18.900 C24.052,18.900 24.034,18.881 24.034,18.881 L24.024,18.873 L24.015,18.864 C24.015,18.864 24.006,18.864 24.006,18.864 C23.606,18.493 23.353,18.243 23.247,18.115 C23.053,17.871 23.009,17.625 23.115,17.375 C23.190,17.187 23.471,16.788 23.958,16.180 C24.215,15.857 24.418,15.598 24.568,15.404 C25.648,14.004 26.117,13.109 25.973,12.720 C25.973,12.720 25.917,12.628 25.917,12.628 C25.880,12.574 25.783,12.524 25.627,12.478 C25.471,12.433 25.271,12.425 25.027,12.455 C25.027,12.455 22.328,12.474 22.328,12.474 C22.285,12.459 22.223,12.460 22.141,12.478 C22.060,12.496 22.019,12.506 22.019,12.506 L21.972,12.528 C21.972,12.528 21.935,12.556 21.935,12.556 C21.904,12.575 21.869,12.606 21.832,12.652 C21.794,12.697 21.763,12.751 21.738,12.811 C21.444,13.548 21.111,14.233 20.735,14.865 C20.504,15.243 20.292,15.570 20.098,15.847 C19.905,16.123 19.742,16.327 19.611,16.459 C19.480,16.589 19.361,16.694 19.255,16.773 C19.149,16.853 19.068,16.886 19.012,16.874 C18.955,16.862 18.902,16.849 18.852,16.837 C18.764,16.783 18.694,16.708 18.641,16.613 C18.588,16.519 18.552,16.401 18.533,16.257 C18.515,16.114 18.504,15.991 18.501,15.887 C18.498,15.784 18.499,15.639 18.505,15.449 C18.512,15.261 18.515,15.133 18.515,15.066 C18.515,14.835 18.520,14.584 18.529,14.313 C18.538,14.042 18.546,13.828 18.552,13.669 C18.558,13.511 18.562,13.343 18.562,13.167 C18.562,12.991 18.550,12.852 18.529,12.752 C18.507,12.651 18.474,12.554 18.431,12.460 C18.387,12.365 18.323,12.293 18.238,12.241 C18.154,12.189 18.049,12.148 17.924,12.117 C17.593,12.045 17.172,12.005 16.659,11.999 C15.497,11.987 14.751,12.060 14.420,12.218 C14.289,12.285 14.170,12.376 14.064,12.492 C13.951,12.626 13.935,12.699 14.017,12.711 C14.392,12.765 14.657,12.897 14.813,13.103 C14.813,13.103 14.869,13.213 14.869,13.213 C14.913,13.292 14.957,13.432 15.001,13.633 C15.045,13.834 15.072,14.056 15.085,14.299 C15.116,14.744 15.116,15.124 15.085,15.440 C15.054,15.757 15.024,16.004 14.996,16.180 C14.968,16.356 14.926,16.499 14.869,16.609 C14.813,16.719 14.776,16.785 14.757,16.810 C14.738,16.834 14.723,16.849 14.710,16.855 C14.629,16.886 14.545,16.901 14.457,16.901 C14.370,16.901 14.263,16.858 14.139,16.773 C14.013,16.688 13.884,16.571 13.750,16.421 C13.615,16.273 13.464,16.064 13.295,15.796 C13.126,15.529 12.952,15.212 12.770,14.847 C12.770,14.847 12.621,14.582 12.621,14.582 C12.527,14.412 12.399,14.164 12.236,13.838 C12.074,13.513 11.930,13.197 11.805,12.893 C11.755,12.765 11.681,12.668 11.580,12.602 C11.580,12.602 11.533,12.574 11.533,12.574 C11.502,12.550 11.452,12.524 11.383,12.496 C11.315,12.469 11.243,12.449 11.168,12.437 C11.168,12.437 8.600,12.455 8.600,12.455 C8.338,12.455 8.160,12.513 8.067,12.628 C8.067,12.628 8.029,12.683 8.029,12.683 C8.010,12.714 8.001,12.762 8.001,12.829 C8.001,12.897 8.019,12.979 8.057,13.076 C8.432,13.934 8.839,14.762 9.280,15.559 C9.720,16.356 10.103,16.999 10.428,17.484 C10.752,17.972 11.084,18.431 11.421,18.864 C11.758,19.295 11.982,19.573 12.091,19.694 C12.200,19.816 12.286,19.907 12.348,19.968 C12.348,19.968 12.583,20.187 12.583,20.187 C12.733,20.333 12.953,20.508 13.244,20.712 C13.534,20.916 13.856,21.116 14.209,21.314 C14.562,21.512 14.972,21.673 15.441,21.798 C15.910,21.923 16.366,21.973 16.809,21.949 C16.809,21.949 17.887,21.949 17.887,21.949 C18.105,21.930 18.271,21.863 18.384,21.748 C18.384,21.748 18.421,21.702 18.421,21.702 C18.446,21.666 18.469,21.609 18.491,21.534 C18.513,21.458 18.524,21.374 18.524,21.283 C18.517,21.021 18.538,20.785 18.585,20.575 C18.631,20.365 18.685,20.207 18.744,20.100 C18.804,19.994 18.871,19.904 18.946,19.832 C19.021,19.758 19.074,19.714 19.105,19.699 C19.136,19.684 19.161,19.673 19.180,19.667 C19.330,19.618 19.506,19.665 19.709,19.808 C19.912,19.951 20.103,20.128 20.281,20.338 C20.459,20.548 20.673,20.783 20.923,21.046 C21.173,21.307 21.391,21.502 21.579,21.630 C21.579,21.630 21.766,21.739 21.766,21.739 C21.891,21.812 22.054,21.879 22.254,21.940 C22.453,22.001 22.628,22.016 22.779,21.986 C22.779,21.986 25.177,21.949 25.177,21.949 C25.414,21.949 25.599,21.911 25.730,21.835 C25.861,21.759 25.939,21.675 25.964,21.584 C25.989,21.492 25.991,21.390 25.969,21.274 C25.947,21.158 25.925,21.078 25.903,21.032 z" fill="#FFFFFF" />
</svg>
