<svg version="1.1" xmlns="http://www.w3.org/2000/svg" xmlns:xlink="http://www.w3.org/1999/xlink" width="40" height="40" viewBox="0 0 40 40">
<g id="Эллипс-653" >
<path id="Эллипс-653-fill" d="M20.000,0.000 C31.046,0.000 40.000,8.954 40.000,20.000 C40.000,31.046 31.046,40.000 20.000,40.000 C8.954,40.000 0.000,31.046 0.000,20.000 C0.000,8.954 8.954,0.000 20.000,0.000 z" fill="#829DC4" />
<path id="Эллипс-653-stroke" d="M20.000,0.000 C31.046,0.000 40.000,8.954 40.000,20.000 C40.000,31.046 31.046,40.000 20.000,40.000 C8.954,40.000 0.000,31.046 0.000,20.000 C0.000,8.954 8.954,0.000 20.000,0.000 z" fill="none" stroke="#829DC4" stroke-width="0" />
</g>
<path id="Forma-1" d="M30.474,24.743 C30.449,24.689 30.425,24.645 30.402,24.610 C30.035,23.964 29.333,23.173 28.297,22.235 C28.297,22.235 28.275,22.214 28.275,22.214 L28.264,22.203 L28.253,22.193 C28.253,22.193 28.242,22.193 28.242,22.193 C27.771,21.756 27.474,21.462 27.349,21.312 C27.121,21.025 27.069,20.736 27.194,20.442 C27.282,20.220 27.613,19.751 28.186,19.035 C28.488,18.656 28.727,18.351 28.903,18.122 C30.175,16.475 30.726,15.423 30.557,14.965 C30.557,14.965 30.491,14.858 30.491,14.858 C30.447,14.793 30.333,14.734 30.149,14.680 C29.966,14.627 29.731,14.617 29.444,14.653 C29.444,14.653 26.269,14.675 26.269,14.675 C26.217,14.657 26.144,14.659 26.048,14.680 C25.953,14.702 25.905,14.713 25.905,14.713 L25.850,14.740 C25.850,14.740 25.806,14.772 25.806,14.772 C25.769,14.793 25.728,14.831 25.684,14.884 C25.641,14.938 25.604,15.001 25.574,15.072 C25.229,15.939 24.836,16.744 24.395,17.489 C24.123,17.933 23.873,18.318 23.645,18.644 C23.417,18.969 23.226,19.209 23.072,19.363 C22.917,19.517 22.778,19.640 22.653,19.733 C22.528,19.827 22.433,19.866 22.366,19.851 C22.300,19.837 22.238,19.823 22.179,19.809 C22.076,19.744 21.993,19.656 21.931,19.545 C21.868,19.435 21.826,19.295 21.804,19.126 C21.782,18.958 21.769,18.813 21.765,18.691 C21.762,18.570 21.764,18.398 21.771,18.176 C21.779,17.954 21.782,17.804 21.782,17.725 C21.782,17.453 21.787,17.157 21.798,16.839 C21.809,16.520 21.819,16.268 21.826,16.082 C21.834,15.895 21.837,15.699 21.837,15.491 C21.837,15.283 21.824,15.121 21.798,15.002 C21.773,14.884 21.734,14.770 21.683,14.659 C21.631,14.548 21.556,14.462 21.457,14.401 C21.358,14.340 21.234,14.292 21.088,14.256 C20.698,14.170 20.202,14.124 19.599,14.116 C18.232,14.102 17.354,14.188 16.965,14.374 C16.810,14.453 16.670,14.561 16.545,14.696 C16.413,14.854 16.395,14.940 16.490,14.954 C16.931,15.018 17.244,15.173 17.427,15.416 C17.427,15.416 17.493,15.545 17.493,15.545 C17.545,15.638 17.596,15.803 17.648,16.039 C17.699,16.275 17.732,16.536 17.747,16.823 C17.784,17.346 17.784,17.793 17.747,18.165 C17.710,18.538 17.676,18.828 17.642,19.035 C17.609,19.243 17.560,19.411 17.493,19.540 C17.427,19.669 17.383,19.748 17.361,19.776 C17.339,19.805 17.321,19.822 17.306,19.830 C17.211,19.865 17.111,19.883 17.008,19.883 C16.905,19.883 16.781,19.833 16.634,19.733 C16.487,19.633 16.334,19.495 16.176,19.319 C16.018,19.144 15.840,18.899 15.642,18.584 C15.443,18.269 15.237,17.897 15.024,17.467 C15.024,17.467 14.848,17.156 14.848,17.156 C14.737,16.955 14.587,16.663 14.396,16.281 C14.205,15.897 14.036,15.527 13.888,15.169 C13.830,15.018 13.742,14.904 13.624,14.825 C13.624,14.825 13.569,14.793 13.569,14.793 C13.532,14.764 13.473,14.734 13.393,14.701 C13.312,14.669 13.227,14.646 13.139,14.632 C13.139,14.632 10.118,14.653 10.118,14.653 C9.809,14.653 9.600,14.721 9.490,14.857 C9.490,14.857 9.446,14.922 9.446,14.922 C9.424,14.957 9.413,15.014 9.413,15.093 C9.413,15.173 9.434,15.269 9.479,15.384 C9.920,16.393 10.399,17.367 10.917,18.305 C11.436,19.243 11.886,19.998 12.268,20.570 C12.650,21.143 13.039,21.684 13.436,22.192 C13.833,22.700 14.096,23.026 14.225,23.169 C14.353,23.313 14.454,23.420 14.528,23.492 C14.528,23.492 14.803,23.750 14.803,23.750 C14.980,23.921 15.239,24.127 15.581,24.367 C15.922,24.607 16.301,24.843 16.716,25.075 C17.132,25.309 17.614,25.498 18.166,25.645 C18.717,25.792 19.254,25.851 19.775,25.822 C19.775,25.822 21.044,25.822 21.044,25.822 C21.301,25.801 21.495,25.722 21.628,25.586 C21.628,25.586 21.672,25.532 21.672,25.532 C21.701,25.489 21.729,25.423 21.754,25.334 C21.780,25.244 21.793,25.145 21.793,25.038 C21.785,24.730 21.809,24.453 21.864,24.206 C21.919,23.959 21.982,23.773 22.052,23.648 C22.122,23.522 22.201,23.417 22.289,23.331 C22.377,23.245 22.439,23.193 22.477,23.175 C22.513,23.157 22.542,23.145 22.565,23.138 C22.741,23.081 22.949,23.136 23.187,23.304 C23.426,23.472 23.651,23.680 23.860,23.927 C24.070,24.174 24.321,24.451 24.615,24.759 C24.909,25.067 25.167,25.296 25.387,25.446 C25.387,25.446 25.607,25.576 25.607,25.576 C25.754,25.661 25.946,25.741 26.181,25.812 C26.416,25.884 26.621,25.901 26.798,25.866 C26.798,25.866 29.620,25.823 29.620,25.823 C29.899,25.823 30.116,25.778 30.271,25.688 C30.425,25.599 30.516,25.501 30.546,25.393 C30.576,25.286 30.577,25.164 30.552,25.028 C30.526,24.892 30.500,24.797 30.474,24.743 z" fill="#FFFFFF" />
</svg>
